<svg xmlns="http://www.w3.org/2000/svg" viewBox="0 0 500 500"><g id="freepik--background-complete--inject-34"><path d="M89.11,325.06,76,325.33l-6.66.12c-2.22,0-4.46,0-6.69.05h-.44v-.44l0-11.19v-.51h.5l13.24.06c4.41,0,8.83.11,13.24.16h.28v.27c0,1.89-.08,3.78-.13,5.65Zm0,0L89,319.4c0-1.86-.11-3.7-.13-5.53l.27.27c-4.41.05-8.83.16-13.24.16l-13.24.07.5-.5-.06,11.19-.44-.45c2.18,0,4.36,0,6.54.05l6.58.12Z" style="fill:#ebebeb"></path><path d="M74.34,339.17l-13.13.27-6.66.12c-2.22,0-4.46,0-6.69.05h-.45v-.44l0-11.19v-.51h.5l13.24.06c4.41,0,8.82.11,13.24.16h.27V328c0,1.89-.08,3.78-.13,5.65Zm0,0-.14-5.66c0-1.86-.12-3.7-.13-5.53l.27.27c-4.42.05-8.83.16-13.24.16l-13.24.06.5-.49-.06,11.19-.44-.45c2.18,0,4.36,0,6.54,0l6.58.12Z" style="fill:#ebebeb"></path><path d="M336.26,203.65l-13.12.28-6.66.11c-2.23.05-4.47,0-6.7.06h-.44v-.45l-.06-11.19V192h.5L323,192c4.42,0,8.83.11,13.24.16h.28v.27c0,1.9-.09,3.79-.14,5.66Zm0,0-.14-5.65c0-1.86-.11-3.71-.13-5.54l.27.27c-4.41.06-8.82.16-13.24.17l-13.24.06.5-.5,0,11.19-.45-.44c2.18,0,4.36,0,6.55,0l6.58.11Z" style="fill:#ebebeb"></path><path d="M321.49,217.76l-13.12.28-6.67.11c-2.22,0-4.46,0-6.69.06h-.44v-.45l-.05-11.19v-.5h.5l13.24.07c4.41,0,8.83.11,13.24.16h.28v.27c0,1.9-.08,3.79-.13,5.66Zm0,0-.14-5.65c-.05-1.87-.11-3.71-.13-5.54l.27.27c-4.41.06-8.83.16-13.24.17l-13.24.06.5-.5-.05,11.19-.45-.44c2.18,0,4.36,0,6.55.05l6.57.11Z" style="fill:#ebebeb"></path><path d="M306.78,203.65l-13.13.28L287,204c-2.22.05-4.46,0-6.69.06h-.45v-.45l-.05-11.19V192h.51l13.24.07c4.41,0,8.82.11,13.24.16h.27v.27c0,1.9-.09,3.79-.13,5.66Zm0,0-.14-5.65c-.05-1.86-.12-3.71-.14-5.54l.28.27c-4.42.06-8.83.16-13.24.17L280.3,193l.5-.5-.06,11.19-.44-.44c2.18,0,4.35,0,6.54,0l6.58.11Z" style="fill:#ebebeb"></path><path d="M452.14,339.17l-13.12.27-6.66.12c-2.23,0-4.47,0-6.7.05h-.44v-.44L425.16,328v-.51h.5l13.24.06c4.42,0,8.83.11,13.24.16h.28V328c0,1.89-.09,3.78-.14,5.65Zm0,0-.14-5.66c0-1.86-.11-3.7-.13-5.53l.27.27c-4.41.05-8.82.16-13.24.16l-13.24.06.5-.49-.05,11.19-.45-.45c2.18,0,4.36,0,6.55,0l6.58.12Z" style="fill:#ebebeb"></path><path d="M437.37,65.49l-13.12.27-6.67.12c-2.22,0-4.46,0-6.69.05h-.44v-.45l-.05-11.19v-.51h.5l13.24.06c4.41,0,8.83.11,13.24.16h.28v.27c0,1.9-.08,3.78-.13,5.65Zm0,0-.14-5.66c-.05-1.86-.11-3.7-.13-5.53l.27.27c-4.41,0-8.83.16-13.24.16l-13.24.07.5-.5-.05,11.19-.45-.45c2.18,0,4.36,0,6.55.06l6.58.11Z" style="fill:#ebebeb"></path><path d="M452.14,79.6,439,79.87l-6.66.12c-2.23,0-4.47,0-6.7.05h-.44V79.6l-.06-11.19V67.9h.5L438.9,68c4.42,0,8.83.11,13.24.16h.28v.27c0,1.89-.09,3.78-.14,5.65Zm0,0L452,73.94c0-1.86-.11-3.7-.13-5.53l.27.27c-4.41,0-8.82.16-13.24.16l-13.24.07.5-.5-.05,11.19-.45-.45c2.18,0,4.36,0,6.55.06l6.58.11Z" style="fill:#ebebeb"></path><path d="M89.11,65.49,76,65.76l-6.66.12c-2.22,0-4.46,0-6.69.05h-.44v-.45l0-11.19v-.51h.5l13.24.06c4.41,0,8.83.11,13.24.16h.28v.27c0,1.9-.08,3.78-.13,5.65Zm0,0L89,59.83c0-1.86-.11-3.7-.13-5.53l.27.27c-4.41,0-8.83.16-13.24.16l-13.24.07.5-.5-.06,11.19L62.63,65c2.18,0,4.36,0,6.54.06l6.58.11Z" style="fill:#ebebeb"></path><rect x="373.44" y="106.48" width="63.54" height="41.49" style="fill:#dbdbdb"></rect><rect x="373.44" y="150.4" width="63.54" height="41.49" style="fill:#ebebeb"></rect><rect x="379.72" y="158.37" width="6.18" height="6.18" style="fill:#fff"></rect><rect x="387.19" y="158.37" width="6.18" height="6.18" style="fill:#c7c7c7"></rect><rect x="394.65" y="158.37" width="6.18" height="6.18" style="fill:#fff"></rect><rect x="402.12" y="158.37" width="6.18" height="6.18" style="fill:#fff"></rect><rect x="409.59" y="158.37" width="6.18" height="6.18" style="fill:#fff"></rect><rect x="417.05" y="158.37" width="6.18" height="6.18" style="fill:#fff"></rect><rect x="424.52" y="158.37" width="6.18" height="6.18" style="fill:#fff"></rect><rect x="379.72" y="165.89" width="6.18" height="6.18" style="fill:#fff"></rect><rect x="387.19" y="165.89" width="6.18" height="6.18" style="fill:#fff"></rect><rect x="394.65" y="165.89" width="6.18" height="6.18" style="fill:#fff"></rect><rect x="402.12" y="165.89" width="6.18" height="6.18" style="fill:#fff"></rect><rect x="409.59" y="165.89" width="6.18" height="6.18" style="fill:#c7c7c7"></rect><rect x="417.05" y="165.89" width="6.18" height="6.18" style="fill:#fff"></rect><rect x="424.52" y="165.89" width="6.18" height="6.18" style="fill:#fff"></rect><rect x="379.72" y="173.41" width="6.18" height="6.18" style="fill:#fff"></rect><rect x="387.19" y="173.41" width="6.18" height="6.18" style="fill:#fff"></rect><rect x="394.65" y="173.41" width="6.18" height="6.18" style="fill:#fff"></rect><rect x="402.12" y="173.41" width="6.18" height="6.18" style="fill:#fff"></rect><rect x="409.59" y="173.41" width="6.18" height="6.18" style="fill:#fff"></rect><rect x="417.05" y="173.41" width="6.18" height="6.18" style="fill:#fff"></rect><rect x="424.52" y="173.41" width="6.18" height="6.18" style="fill:#fff"></rect><rect x="379.72" y="180.93" width="6.18" height="6.18" style="fill:#fff"></rect><rect x="387.19" y="180.93" width="6.18" height="6.18" style="fill:#fff"></rect><rect x="394.65" y="180.93" width="6.18" height="6.18" style="fill:#c7c7c7"></rect><rect x="402.12" y="180.93" width="6.18" height="6.18" style="fill:#fff"></rect><rect x="409.59" y="180.93" width="6.18" height="6.18" style="fill:#fff"></rect><rect x="417.05" y="180.93" width="6.18" height="6.18" style="fill:#fff"></rect><rect x="424.52" y="180.93" width="6.18" height="6.18" style="fill:#fff"></rect><rect x="375.93" y="145.99" width="2.41" height="6.38" style="fill:#c7c7c7"></rect><rect x="381.54" y="145.99" width="2.41" height="6.38" style="fill:#c7c7c7"></rect><rect x="387.16" y="145.99" width="2.41" height="6.38" style="fill:#c7c7c7"></rect><rect x="392.77" y="145.99" width="2.41" height="6.38" style="fill:#c7c7c7"></rect><rect x="398.39" y="145.99" width="2.41" height="6.38" style="fill:#c7c7c7"></rect><rect x="404" y="145.99" width="2.41" height="6.38" style="fill:#c7c7c7"></rect><rect x="409.62" y="145.99" width="2.41" height="6.38" style="fill:#c7c7c7"></rect><rect x="415.23" y="145.99" width="2.41" height="6.38" style="fill:#c7c7c7"></rect><rect x="420.85" y="145.99" width="2.41" height="6.38" style="fill:#c7c7c7"></rect><rect x="426.47" y="145.99" width="2.41" height="6.38" style="fill:#c7c7c7"></rect><rect x="432.08" y="145.99" width="2.41" height="6.38" style="fill:#c7c7c7"></rect><circle cx="405.21" cy="110.72" r="1.02" style="fill:#263238"></circle><circle cx="304.76" cy="79.58" r="31.77" transform="translate(181.78 369.55) rotate(-81.65)" style="fill:#ebebeb"></circle><circle cx="306.22" cy="80.28" r="30.32" style="fill:#dbdbdb"></circle><circle cx="306.22" cy="80.28" r="28.4" style="fill:#fff"></circle><path d="M334,74.26C321,82.09,299.78,95,287.9,102a28.46,28.46,0,0,1-7.76-10.43l39.3-36.42A28.43,28.43,0,0,1,334,74.26Z" style="fill:#ebebeb;opacity:0.5"></path><path d="M334.6,81.28a28.2,28.2,0,0,1-1.88,9.22L297.3,107.26a29.19,29.19,0,0,1-4.48-1.92C303.52,99.15,323.08,87.9,334.6,81.28Z" style="fill:#ebebeb;opacity:0.5"></path><rect x="305.94" y="53.94" width="0.55" height="4.3" style="fill:#c7c7c7"></rect><rect x="293.85" y="57.18" width="0.55" height="4.31" transform="translate(9.73 155) rotate(-30)" style="fill:#c7c7c7"></rect><rect x="284.99" y="66.04" width="0.55" height="4.31" transform="translate(83.56 281.13) rotate(-60)" style="fill:#c7c7c7"></rect><rect x="279.88" y="80.01" width="4.3" height="0.55" style="fill:#c7c7c7"></rect><rect x="283.12" y="92.1" width="4.31" height="0.55" transform="translate(-7.97 155.03) rotate(-30)" style="fill:#c7c7c7"></rect><rect x="291.97" y="100.96" width="4.3" height="0.55" transform="translate(59.51 305.47) rotate(-60.03)" style="fill:#c7c7c7"></rect><rect x="305.94" y="102.32" width="0.55" height="4.31" style="fill:#c7c7c7"></rect><rect x="318.03" y="99.08" width="0.55" height="4.3" transform="translate(-7.97 172.72) rotate(-30)" style="fill:#c7c7c7"></rect><rect x="326.89" y="90.23" width="0.55" height="4.31" transform="matrix(0.5, -0.87, 0.87, 0.5, 83.56, 329.5)" style="fill:#c7c7c7"></rect><rect x="328.25" y="80.01" width="4.3" height="0.55" style="fill:#c7c7c7"></rect><rect x="325.01" y="67.92" width="4.31" height="0.55" transform="translate(9.74 172.74) rotate(-30)" style="fill:#c7c7c7"></rect><rect x="316.16" y="59.06" width="4.31" height="0.55" transform="translate(107.89 305.44) rotate(-60.03)" style="fill:#c7c7c7"></rect><polygon points="306.63 55.89 307.56 82.2 304.87 82.17 305.9 55.88 306.63 55.89" style="fill:#c7c7c7"></polygon><polygon points="323.01 71.11 305.31 82.41 304.03 80.04 322.67 70.47 323.01 71.11" style="fill:#a6a6a6"></polygon><path d="M307.13,80.28a.92.92,0,1,1-.91-.92A.92.92,0,0,1,307.13,80.28Z" style="fill:#c7c7c7"></path><rect x="43.9" y="119.5" width="151.39" height="6.64" transform="translate(239.19 245.64) rotate(180)" style="fill:#ebebeb"></rect><rect x="180.16" y="126.14" width="6.64" height="21.96" style="fill:#ebebeb"></rect><rect x="180.16" y="126.14" width="6.64" height="6.79" style="fill:#dbdbdb"></rect><rect x="52.38" y="126.14" width="6.64" height="21.96" style="fill:#ebebeb"></rect><rect x="52.38" y="126.14" width="6.64" height="6.79" style="fill:#dbdbdb"></rect><rect x="140.55" y="93.02" width="42.31" height="10.66" transform="translate(260.05 -63.36) rotate(90)" style="fill:#c7c7c7"></rect><rect x="159.38" y="71.92" width="4.65" height="10.66" transform="translate(238.96 -84.45) rotate(90)" style="fill:#dbdbdb"></rect><rect x="160.84" y="81.07" width="1.73" height="10.66" transform="translate(248.1 -75.31) rotate(90)" style="fill:#dbdbdb"></rect><rect x="158.72" y="105.63" width="4.65" height="11.98" transform="translate(272.67 -49.42) rotate(90)" style="fill:#dbdbdb"></rect><rect x="127.98" y="91.1" width="49.36" height="7.45" transform="translate(247.48 -57.83) rotate(90)" style="fill:#dbdbdb"></rect><rect x="143.19" y="82.04" width="18.98" height="4.47" transform="translate(236.96 -68.41) rotate(90)" style="fill:#ebebeb"></rect><rect x="91.44" y="95.79" width="49.36" height="7.45" transform="translate(268.66 88.66) rotate(135.33)" style="fill:#c7c7c7"></rect><rect x="104.05" y="99.79" width="18.98" height="4.47" transform="translate(266.02 94.78) rotate(135.33)" style="fill:#dbdbdb"></rect><rect x="123.87" y="94.44" width="37.49" height="12.65" transform="translate(243.38 -41.85) rotate(90)" style="fill:#a6a6a6"></rect><rect x="140.87" y="107.46" width="3.49" height="12.65" transform="translate(256.4 -28.83) rotate(90)" style="fill:#c7c7c7"></rect><rect x="141.94" y="102.75" width="1.35" height="12.65" transform="translate(251.68 -33.54) rotate(90)" style="fill:#c7c7c7"></rect><rect x="153.78" y="97.52" width="35.23" height="8.74" transform="translate(273.29 -69.51) rotate(90)" style="fill:#a6a6a6"></rect><rect x="169.76" y="109.76" width="3.28" height="8.74" transform="translate(285.53 -57.27) rotate(90)" style="fill:#c7c7c7"></rect><rect x="169.76" y="88.81" width="3.28" height="8.74" transform="translate(264.58 -78.22) rotate(90)" style="fill:#c7c7c7"></rect><rect x="170.76" y="93.34" width="1.27" height="8.74" transform="translate(269.11 -73.69) rotate(90)" style="fill:#c7c7c7"></rect><path d="M74.51,74.37C82,81.66,83.22,93,81.65,102.84a.2.2,0,0,1-.39,0c0-2.25.07-4.48.06-6.71l-.12-.29a15.1,15.1,0,0,1-4.84-5.21c-1.24-2.44-1.73-5.2-2.68-7.76-.09-.25.17-.17.34,0,4.53,3.34,6,6.94,7.28,11.75A39.79,39.79,0,0,0,80.51,87a25.61,25.61,0,0,0-6.19-12.47A.13.13,0,1,1,74.51,74.37Z" style="fill:#a6a6a6"></path><path d="M73.11,75.22c-1.28,0-2.08,2.09-3.08,2.69a1,1,0,0,1-1.42-.22c-1-1.39.37-3.09,1.65-4a14.22,14.22,0,0,1-2.66,1.23.93.93,0,0,1-1.2-.72C66,72.27,68.33,71.43,70,71.39c-.78-.55-3-2-1.84-2.76S72,70,72.83,70.72c1.27,1,2.78,2.56,2.84,4.17C75.74,76.77,74.1,75.61,73.11,75.22Z" style="fill:#dbdbdb"></path><path d="M73.48,75.53c-1.64-.74-4.79.33-5-.29-.55-1.26,2-2.13,3.33-2.3-1.25-.34-3.65-.88-3.58-2.08.09-1.47,3.68-.21,5.5,1.18C76,73.8,76,75.49,75.57,75.83S73.75,75.66,73.48,75.53Z" style="fill:#ebebeb"></path><path d="M91.48,73.64c-7.72,7-9.4,18.24-8.21,28.18a.2.2,0,0,0,.39,0c.09-2.25.11-4.48.2-6.7l.12-.3a14.91,14.91,0,0,0,5-5c1.34-2.4,1.93-5.14,3-7.66.1-.24-.17-.18-.34-.06-4.66,3.17-6.24,6.71-7.72,11.47A39.7,39.7,0,0,1,85,86.07a25.52,25.52,0,0,1,6.66-12.22A.14.14,0,0,0,91.48,73.64Z" style="fill:#a6a6a6"></path><path d="M92.85,74.55c1.28.09,2,2.17,3,2.8a1,1,0,0,0,1.42-.17c1-1.34-.25-3.09-1.49-4.09a15.22,15.22,0,0,0,2.61,1.32.93.93,0,0,0,1.23-.67c.5-1.87-1.83-2.8-3.45-2.9.81-.52,3.12-1.91,1.95-2.69s-3.91,1.24-4.79,1.91c-1.31,1-2.88,2.46-3,4.06C90.17,76,91.85,74.9,92.85,74.55Z" style="fill:#dbdbdb"></path><path d="M92.47,74.85c1.67-.68,4.77.51,5.06-.1.59-1.24-1.89-2.2-3.24-2.42,1.26-.29,3.68-.74,3.65-2,0-1.48-3.66-.35-5.53,1-2.35,1.66-2.4,3.35-2,3.7S92.19,75,92.47,74.85Z" style="fill:#ebebeb"></path><path d="M83.59,92.15a76.21,76.21,0,0,1-2.4,11.08.28.28,0,0,1-.54-.11c.5-3.41,1.43-6.76,1.94-10.18a51.48,51.48,0,0,0,.59-10.45c-.33-5.75-1.89-11.87-5.64-16.38-.08-.1.09-.25.18-.15C85.23,74.72,84,85.47,84,86.43c1.06-3.63,2.16-7.79,6.19-11.48.17-.16.3-.09.28.18C89.78,81.86,87.9,85.38,84,89,83.89,90,83.76,91.1,83.59,92.15Z" style="fill:#a6a6a6"></path><path d="M77.47,67.12c-1.35-.6-3.22,1.12-4.55,1.24a1.1,1.1,0,0,1-1.36-.94c-.33-1.93,1.94-3,3.74-3.37A16.48,16.48,0,0,1,71.93,64a1.07,1.07,0,0,1-.88-1.35c.49-2.18,3.37-1.86,5.07-1.08-.54-1-2.13-3.64-.52-3.79s3.3,3.38,3.84,4.54c.8,1.7,1.6,4.06.84,5.76C79.42,70.05,78.3,68,77.47,67.12Z" style="fill:#dbdbdb"></path><path d="M77.7,67.64c-1.33-1.6-5.14-2.07-5.1-2.85.07-1.58,3.12-1.22,4.61-.71-1.13-1-3.34-2.75-2.66-4,.84-1.48,3.92,1.64,5.1,4,1.49,3,.63,4.72.06,4.88C78.94,69.22,77.91,67.9,77.7,67.64Z" style="fill:#ebebeb"></path><path d="M88.53,94.18l3.32,25.32H71.67c.42-2.24,4.17-25.35,4.17-25.35Z" style="fill:#dbdbdb"></path></g><g id="freepik--Shadow--inject-34"><ellipse cx="250" cy="438.56" rx="187.29" ry="15.77" style="fill:#ebebeb"></ellipse></g><g id="freepik--Floor--inject-34"><polygon points="40.58 399.2 92.93 398.96 145.29 398.87 250 398.7 354.71 398.87 407.07 398.96 459.42 399.2 407.07 399.45 354.71 399.54 250 399.7 145.29 399.53 92.93 399.45 40.58 399.2" style="fill:#263238"></polygon></g><g id="freepik--Plant--inject-34"><path d="M82.59,244.07s-21.78-3-16.69-29.33C65.9,214.74,90.23,220.2,82.59,244.07Z" style="fill:#FFC727"></path><path d="M82.59,244.07s-21.78-3-16.69-29.33C65.9,214.74,90.23,220.2,82.59,244.07Z" style="opacity:0.1"></path><path d="M81.49,238.58c-.43-1.33-.93-2.63-1.49-3.91,0-.17,0-.34,0-.5l-.09-1.09c-.06-.78-.11-1.57-.16-2.35-.09-1.57-.19-3.14-.22-4.72,0-.08-.13-.08-.13,0,0,1.57,0,3.14,0,4.72,0,.78.08,1.57.13,2.35,0,.18,0,.35,0,.52a46.81,46.81,0,0,0-4.37-7.46c-.75-1.05-1.53-2.05-2.38-3s-1.78-1.94-2.66-2.92c-.06-.07-.15,0-.09.09a39.28,39.28,0,0,1,4.19,5.58c.66,1,1.29,2,1.88,3.08l-.2-.08-.77-.32-1.78-.67-3.5-1.3c-.07,0-.12.09,0,.12,1.15.46,2.3.95,3.44,1.44l1.69.73.85.35a2.49,2.49,0,0,0,.58.2c.44.79.87,1.58,1.27,2.39a54.83,54.83,0,0,1,2.66,6.27c.06.15.11.31.16.46a12.11,12.11,0,0,0-1.78-.86l-2.26-1c-1.52-.7-3-1.41-4.5-2.24-.08,0-.14.07-.07.11,1.5.82,3,1.69,4.46,2.51.75.4,1.51.8,2.27,1.17a7.27,7.27,0,0,0,2,.82,26.1,26.1,0,0,1,1.43,6.17c.24,3,.21,6,.28,9a0,0,0,1,0,.08,0c.22-2.7.34-5.43.35-8.14A23.82,23.82,0,0,0,81.49,238.58Z" style="fill:#263238"></path><path d="M78.13,223.13a25.61,25.61,0,0,0-.21,4.63,0,0,0,1,0,.06,0c.09-1.54.1-3.07.28-4.6C78.27,223.07,78.14,223,78.13,223.13Z" style="fill:#263238"></path><path d="M71.91,224.44a16.51,16.51,0,0,1-2.8-1.37c-.07,0-.14.07-.07.11a10.37,10.37,0,0,0,2.83,1.35S72,224.46,71.91,224.44Z" style="fill:#263238"></path><path d="M83.28,285.8c0-2.4-.06-4.81-.09-7.21q-.06-12-.25-24-.18-9.51-.45-19a.1.1,0,0,0,0-.08l0-5.2s0-.06-.1-.06-.11,0-.11.07l0,5.2a.1.1,0,0,0,0,.08c-.32,11.29-.61,22.58-.67,33.87,0,2.3,0,4.6,0,6.89q-.12,11-.09,22.09l0,3.52c0,6.73.07,13.47.08,20.21,0,.36.4.54.83.55s1-.17,1-.58c0-7.43,0-14.86,0-22.29C83.3,295.17,83.32,290.49,83.28,285.8Z" style="fill:#263238"></path><path d="M74.19,278.49S63.71,270.73,53.77,276s-11.5,25.45-11.5,25.45,14.6,2.09,23.79-6.66C74.92,286.34,74.19,278.49,74.19,278.49Z" style="fill:#FFC727"></path><path d="M77,279a12.59,12.59,0,0,0-6.06-.79,9.38,9.38,0,0,0-1.29-.12l-1.47-.12-3.06-.21c-2.06-.16-4.14-.28-6.2-.49-.07,0-.09.12,0,.13,2,.26,4.07.55,6.12.76,1.05.11,2.1.21,3.16.29l.76.07-.93.23a25.62,25.62,0,0,0-4.74,1.93c-.83.15-1.65.38-2.46.57-1.29.31-2.58.64-3.87,1-2.54.67-5.06,1.42-7.58,2.15a.07.07,0,0,0,0,.13c2.53-.62,5.06-1.19,7.59-1.79l3.68-.88,1-.22a30.55,30.55,0,0,0-7.44,6.47,40.34,40.34,0,0,0-5.17,8.16c0,.07.06.15.11.07a39.46,39.46,0,0,1,6.26-8.22c0,.14-.09.28-.14.42-.19.62-.39,1.23-.58,1.85-.39,1.23-.78,2.47-1.15,3.71,0,.08.1.11.13,0,.44-1.2.86-2.4,1.28-3.6.21-.59.42-1.18.62-1.77.11-.31.22-.61.32-.92,0-.1.07-.19.1-.28a37,37,0,0,1,3.71-3.17,28.4,28.4,0,0,1,5.56-3.19c0,.19-.07.37-.1.54-.11.48-.21,1-.31,1.43-.2,1-.4,2-.59,3-.4,2-.64,4.08-1,6.11a.07.07,0,0,0,.13,0c.47-2,1.07-4,1.53-6.09.23-1,.46-2,.67-3.06.1-.48.19-1,.29-1.44.05-.27.12-.53.15-.8l.57-.24a16.59,16.59,0,0,1,8.71-1.19,8.57,8.57,0,0,1,6.3,5.05c.1.23.46.09.41-.15A8.12,8.12,0,0,0,77,279Z" style="fill:#263238"></path><path d="M61,287.6c-.3,1.33-.59,2.66-.88,4a30.16,30.16,0,0,0-.74,3.88c0,.05.07.05.09,0a30.58,30.58,0,0,0,.89-3.9c.26-1.31.51-2.62.77-3.93C61.15,287.55,61,287.52,61,287.6Z" style="fill:#263238"></path><path d="M50.88,291c-1.33.67-2.63,1.44-4,2a.07.07,0,1,0,0,.12,42,42,0,0,0,4-2.07S50.91,291,50.88,291Z" style="fill:#263238"></path><path d="M76.54,264.24s-12.8.82-18.75-7.62-4.62-20.5-4.62-20.5,13.45,1.64,18.79,7.7S76.54,264.24,76.54,264.24Z" style="fill:#FFC727"></path><path d="M82.55,276.87c-.44-1.37-1-2.72-1.51-4.06s-1-2.58-1.59-3.84a78.53,78.53,0,0,0-3.84-7.54c-.9-1.56-1.87-3.07-2.87-4.56,0-.22-.06-.45-.1-.68-.06-.39-.11-.79-.18-1.19-.12-.81-.26-1.61-.4-2.42-.29-1.77-.66-3.53-.94-5.3,0-.08-.14-.08-.13,0,.26,1.74.43,3.5.68,5.25.12.86.23,1.72.36,2.57,0,.31.1.62.14.93a91,91,0,0,0-6.33-8.21c-.3-.35-.62-.7-.93-1.05,0-.09-.08-.19-.12-.29s-.19-.49-.28-.73c-.19-.51-.37-1-.55-1.53-.36-1-.69-2-1-3a.06.06,0,1,0-.12,0c.25,1.05.53,2.1.83,3.13.15.5.32,1,.49,1.49a2.6,2.6,0,0,0,.1.25c-1.64-1.79-3.35-3.5-5.07-5.2a.06.06,0,1,0-.09.09,93,93,0,0,1,9.07,11.11c-.32-.1-.64-.17-.95-.24-1-.19-2-.33-3-.45-2.08-.27-4.16-.53-6.24-.86-.08,0-.12.11,0,.13,2,.39,4,.84,5.92,1.29.93.21,1.86.4,2.8.58a16.9,16.9,0,0,1,2.24.64c.21.3.43.59.63.89.94,1.36,1.84,2.76,2.72,4.16L71,258c-1-.19-2-.37-3-.54-2-.32-3.9-.66-5.83-1.09a.06.06,0,1,0,0,.12c2,.46,3.9,1,5.84,1.52.94.25,1.89.48,2.83.68l1.43.31a3.11,3.11,0,0,0,.57.1c1.87,3,3.63,6.14,5.25,9.3.72,1.4,1.4,2.8,2.07,4.22s1.27,2.94,1.9,4.41C82.19,277.32,82.65,277.19,82.55,276.87Z" style="fill:#263238"></path><path d="M69.45,247.45c-.25-1.22-.5-2.44-.77-3.65,0-.09-.15-.05-.13,0q.36,1.8.69,3.6A36.23,36.23,0,0,0,70,251s0,0,0,0A27.3,27.3,0,0,0,69.45,247.45Z" style="fill:#263238"></path><path d="M62,247.1a19.9,19.9,0,0,0-1.84-.78l-1-.38-.49-.2a2.37,2.37,0,0,1-.54-.23c-.1-.07-.16.09-.07.11a2.63,2.63,0,0,1,.55.22l.49.22.93.42c.62.27,1.25.54,1.89.75C62,247.25,62.05,247.13,62,247.1Z" style="fill:#263238"></path><path d="M89.65,254.18s7.74-14.47,19.53-16.71,19,9.88,19,9.88-8.6,11-19.41,12.9S89.65,254.18,89.65,254.18Z" style="fill:#FFC727"></path><path d="M117.08,244a31.87,31.87,0,0,0-9.25.11l.53-.28,2.62-1.35a61.43,61.43,0,0,1,5.53-2.7.07.07,0,1,0-.06-.12c-1.84.86-3.75,1.58-5.6,2.43-.92.42-1.83.87-2.73,1.34-.59.31-1.23.6-1.8,1a32.63,32.63,0,0,0-7.49,2.49l1.47-1.6c1.1-1.21,2.18-2.47,3.39-3.57.06,0,0-.14-.1-.09-1.23,1.12-2.53,2.16-3.73,3.32-.58.57-1.14,1.16-1.68,1.76-.27.3-.54.61-.79.93A31.62,31.62,0,0,0,85,259.66a32,32,0,0,0-3.44,9.27c0,.08.11.12.13,0a35.62,35.62,0,0,1,8.66-14.66,34.09,34.09,0,0,1,15.79-9.14,34.81,34.81,0,0,1,10.9-1A.12.12,0,0,0,117.08,244Z" style="fill:#263238"></path><path d="M128.18,247.35s-8.6,11-19.42,12.9c-8.25,1.46-15-2.84-17.79-5l-.59-1s5.58-4.7,16.13-7.42S128.18,247.35,128.18,247.35Z" style="opacity:0.1"></path><path d="M110.23,238.79a30.24,30.24,0,0,0-2.61,1.73,16.65,16.65,0,0,0-2.28,2.08.07.07,0,0,0,.1.09c.79-.67,1.57-1.35,2.38-2a25.57,25.57,0,0,1,2.48-1.79C110.38,238.86,110.31,238.75,110.23,238.79Z" style="fill:#263238"></path><path d="M116.7,241.24l-1.32.52-1.31.55c-.09,0,0,.19.05.15l1.31-.53,1.31-.56C116.82,241.34,116.78,241.21,116.7,241.24Z" style="fill:#263238"></path><path d="M88.1,272.39s2.07,14.35,12.86,19.38,24,0,24,0S119.74,260.71,88.1,272.39Z" style="fill:#FFC727"></path><path d="M117.48,282.43c-1-.12-2-.29-3-.47-.48-.08-1-.17-1.45-.27-.25-.05-.5-.11-.76-.15-.29-.27-.57-.55-.87-.81a44.24,44.24,0,0,0-6.6-4.79,38.87,38.87,0,0,0-4-2h.2l3.56.15c2.36.11,4.73.17,7.1.32a.07.07,0,0,0,0-.13c-2.38-.16-4.74-.43-7.12-.63l-3.45-.31-1.78-.15-.45-.05c-.62-.23-1.24-.45-1.87-.64a16.83,16.83,0,0,0-9.14-.51c-2.71.7-5.42,2.48-6.13,5.34,0,.1.13.17.17.07,1-2.39,3.67-3.6,6.07-4.1a14.59,14.59,0,0,1,4.89-.09,11.3,11.3,0,0,0,.54,2.17l.9,3c.61,2,1.29,4,1.89,6a.06.06,0,1,0,.12,0c-.5-2-.92-4-1.41-6.06-.24-1-.49-2-.73-3a17.59,17.59,0,0,0-.54-2,24.73,24.73,0,0,1,2.8.66,40.43,40.43,0,0,1,4.89,1.79c.16,1,.39,2,.62,3.05.3,1.26.62,2.52,1,3.76,0,.08.13,0,.12,0s0-.16-.05-.23h0l-.75-3.51c-.2-.95-.39-1.9-.59-2.84a43.85,43.85,0,0,1,3.93,2c0,.29.1.59.14.86.08.49.17,1,.26,1.47.2,1.11.42,2.21.69,3.31a50.75,50.75,0,0,0,1.86,6.24.05.05,0,0,0,0,.08l.06.08s.12,0,.11-.07c-.5-2.13-1.07-4.24-1.54-6.37-.23-1.07-.47-2.14-.68-3.21-.11-.53-.21-1.07-.31-1.6,0-.15,0-.32-.07-.48a45.33,45.33,0,0,1,10.63,8.67c.08.09.23,0,.16-.13a40.29,40.29,0,0,0-2.57-3.13c-.54-.59-1.11-1.15-1.68-1.7l.18,0c.5.09,1,.16,1.52.23,1,.14,2,.23,3,.35C117.53,282.57,117.57,282.44,117.48,282.43Z" style="fill:#263238"></path><path d="M109.9,287.3h0a2.58,2.58,0,0,0-.06-.37c0-.16-.1-.31-.13-.47h0c-.22-1-.41-1.93-.58-2.9a.06.06,0,0,0-.12,0,11.84,11.84,0,0,0,.82,3.75s.08,0,.08,0Z" style="fill:#263238"></path><path d="M100.86,287.06s0-.05-.06-.06c-.31-1.27-.6-2.54-.86-3.82-.14-.67-.28-1.34-.41-2-.07-.36-.13-.73-.2-1.09a3,3,0,0,0-.23-.93.07.07,0,0,0-.12,0,6.32,6.32,0,0,0,.27,1.92q.19,1.05.42,2.1c.31,1.42.67,2.83,1.07,4.22,0,.08.15.06.14,0Z" style="fill:#263238"></path><path d="M116.5,278.29c-2-.27-3.94-.55-5.92-.79-.08,0-.12.11,0,.13,2,.29,3.94.53,5.91.79C116.55,278.43,116.58,278.3,116.5,278.29Z" style="fill:#263238"></path><path d="M82.57,238.72s-6.6-29,24.53-40.7C107.1,198,115.73,236.16,82.57,238.72Z" style="fill:#FFC727"></path><path d="M89.29,222.29l.33-.21,1.76-1,3.62-2c2.37-1.33,4.72-2.71,7.11-4,.08,0,0-.16-.07-.12-2.4,1.31-4.83,2.53-7.25,3.8l-3.57,1.89-1.45.77c1-2,2.14-3.9,3.36-5.76,1.63-2.48,3.41-4.85,5.27-7.16a.11.11,0,0,0-.15-.15,49.29,49.29,0,0,0-7.2,8.83,2.91,2.91,0,0,1,0-.3c0-.72,0-1.45.06-2.17,0-1.41-.05-2.83,0-4.24,0-.09-.13-.08-.14,0,0,1.39-.22,2.78-.3,4.17,0,.7-.07,1.39-.09,2.09,0,.37,0,.8,0,1.21-.64,1-1.26,2.06-1.84,3.11a54.75,54.75,0,0,0-2.79,5.83c0-.72-.07-1.44-.11-2.16-.1-1.59-.29-3.17-.36-4.75a.07.07,0,1,0-.13,0c0,1.59,0,3.17,0,4.76,0,.79,0,1.59.1,2.38,0,.29,0,.59,0,.88a54.17,54.17,0,0,0-2.35,8c-.6,2.9-.85,5.81-1.16,8.75,0,0,0,0,0,0a46.58,46.58,0,0,1,1.65-7.81c.39-1.36.79-2.72,1.23-4.07,1.29-.61,2.53-1.37,3.79-2.07s2.6-1.42,3.9-2.14c2.6-1.42,5.19-2.87,7.87-4.13.08,0,0-.15-.07-.11-2.71,1.23-5.45,2.4-8.11,3.74-1.33.66-2.63,1.37-3.93,2.1-1.08.61-2.19,1.22-3.22,1.92.3-.9.61-1.8,1-2.69A76.08,76.08,0,0,1,89.29,222.29Z" style="fill:#263238"></path><path d="M86.67,215.66c0-.08-.14-.08-.14,0,.12,1.66.17,3.31.35,5,0,.09.15.09.14,0C87,219,86.79,217.31,86.67,215.66Z" style="fill:#263238"></path><path d="M101.59,221.2c-2,.78-3.91,1.53-5.85,2.34,0,0,0,.11,0,.09,2-.74,3.91-1.54,5.86-2.31C101.71,221.29,101.67,221.16,101.59,221.2Z" style="fill:#263238"></path><path d="M104.55,207.83a50.68,50.68,0,0,0-5.53,3,.08.08,0,1,0,.08.14c1.81-1.05,3.65-2.07,5.52-3C104.7,207.91,104.63,207.8,104.55,207.83Z" style="fill:#263238"></path><rect x="59.18" y="301.39" width="44.9" height="47.33" style="fill:#455a64"></rect><rect x="56.09" y="318.13" width="2.3" height="81.07" style="fill:#263238"></rect><rect x="104.63" y="318.13" width="2.3" height="81.07" style="fill:#263238"></rect><rect x="81.58" y="318.13" width="2.3" height="81.07" style="fill:#263238"></rect><rect x="57.24" y="345.68" width="48.54" height="6.55" style="fill:#263238"></rect></g><g id="freepik--Table--inject-34"><rect x="194.53" y="363.77" width="22.94" height="4.03" style="fill:#455a64"></rect><polygon points="229.91 422.79 227.43 422.79 207.23 328.47 206.07 323.09 202.44 306.16 201.09 299.84 196.01 276.15 194.24 267.85 203.06 267.85 204.5 276.15 205.44 281.59 206.07 285.22 209.69 306.16 210.86 312.89 229.91 422.79" style="fill:#455a64"></polygon><polygon points="203.06 267.85 204.5 276.15 196.01 276.15 194.24 267.85 203.06 267.85" style="fill:#263238"></polygon><polygon points="210.86 312.89 207.23 328.47 206.07 323.09 202.44 306.16 201.09 299.84 205.44 281.59 206.07 285.22 209.69 306.16 210.86 312.89" style="fill:#263238"></polygon><polygon points="217.91 267.85 216.13 276.15 209.69 306.16 206.07 323.09 184.71 422.79 182.24 422.79 202.44 306.16 206.07 285.22 207.64 276.15 209.08 267.85 217.91 267.85" style="fill:#455a64"></polygon><polygon points="217.91 267.85 216.13 276.15 207.64 276.15 209.08 267.85 217.91 267.85" style="fill:#263238"></polygon><rect x="408.42" y="363.77" width="22.94" height="4.03" style="fill:#455a64"></rect><polygon points="443.81 422.79 441.33 422.79 421.12 328.47 419.97 323.09 416.34 306.16 414.99 299.84 409.91 276.15 408.13 267.85 416.96 267.85 418.39 276.15 419.34 281.59 419.97 285.22 423.59 306.16 424.76 312.89 443.81 422.79" style="fill:#455a64"></polygon><polygon points="416.96 267.85 418.39 276.15 409.91 276.15 408.13 267.85 416.96 267.85" style="fill:#263238"></polygon><polygon points="424.76 312.89 421.12 328.47 419.97 323.09 416.34 306.16 414.99 299.84 419.34 281.59 419.97 285.22 423.59 306.16 424.76 312.89" style="fill:#263238"></polygon><polygon points="431.8 267.85 430.02 276.15 423.59 306.16 419.97 323.09 398.6 422.79 396.13 422.79 416.34 306.16 419.97 285.22 421.54 276.15 422.98 267.85 431.8 267.85" style="fill:#455a64"></polygon><polygon points="431.8 267.85 430.02 276.15 421.54 276.15 422.98 267.85 431.8 267.85" style="fill:#263238"></polygon><rect x="170.22" y="256.5" width="285.6" height="11.35" style="fill:#455a64"></rect></g><g id="freepik--Device--inject-34"><polygon points="267.4 256.5 210.44 256.5 206.03 217.81 262.99 217.81 267.4 256.5" style="fill:#c7c7c7"></polygon><polygon points="264.3 253.9 212.95 253.9 209.13 220.4 260.48 220.4 264.3 253.9" style="fill:#fff"></polygon><rect x="210.84" y="253.9" width="73.28" height="2.59" style="fill:#c7c7c7"></rect><rect x="226.75" y="253.9" width="73.28" height="2.59" style="fill:#ebebeb"></rect><polygon points="260.67 222.03 260.48 220.4 209.13 220.4 209.32 222.03 260.67 222.03" style="fill:#263238"></polygon><path d="M213.46,221.22a.43.43,0,0,0,.4.4.34.34,0,0,0,.32-.4.43.43,0,0,0-.41-.41A.33.33,0,0,0,213.46,221.22Z" style="fill:#c7c7c7"></path><path d="M212,221.22a.44.44,0,0,0,.41.4.34.34,0,0,0,.32-.4.45.45,0,0,0-.41-.41A.34.34,0,0,0,212,221.22Z" style="fill:#fff"></path><path d="M210.48,221.22a.45.45,0,0,0,.41.4.34.34,0,0,0,.32-.4.44.44,0,0,0-.41-.41A.34.34,0,0,0,210.48,221.22Z" style="fill:#FFC727"></path><polygon points="221.2 232.9 216.46 232.9 215.92 228.16 220.66 228.16 221.2 232.9" style="fill:#ebebeb"></polygon><polygon points="220.55 227.2 215.81 227.2 215.67 225.97 220.41 225.97 220.55 227.2" style="fill:#FFC727"></polygon><polygon points="226.29 227.2 221.54 227.2 221.4 225.97 226.15 225.97 226.29 227.2" style="fill:#455a64"></polygon><polygon points="232.02 227.2 227.28 227.2 227.14 225.97 231.88 225.97 232.02 227.2" style="fill:#455a64"></polygon><polygon points="237.76 227.2 233.01 227.2 232.87 225.97 237.62 225.97 237.76 227.2" style="fill:#455a64"></polygon><polygon points="243.49 227.2 238.75 227.2 238.61 225.97 243.35 225.97 243.49 227.2" style="fill:#455a64"></polygon><polygon points="249.23 227.2 244.48 227.2 244.34 225.97 249.09 225.97 249.23 227.2" style="fill:#455a64"></polygon><polygon points="254.96 227.2 250.22 227.2 250.08 225.97 254.82 225.97 254.96 227.2" style="fill:#455a64"></polygon><polygon points="226.94 232.9 222.19 232.9 221.65 228.16 226.4 228.16 226.94 232.9" style="fill:#c7c7c7"></polygon><polygon points="232.67 232.9 227.93 232.9 227.39 228.16 232.13 228.16 232.67 232.9" style="fill:#ebebeb"></polygon><polygon points="238.41 232.9 233.66 232.9 233.12 228.16 237.87 228.16 238.41 232.9" style="fill:#ebebeb"></polygon><polygon points="244.14 232.9 239.4 232.9 238.86 228.16 243.6 228.16 244.14 232.9" style="fill:#ebebeb"></polygon><polygon points="249.88 232.9 245.13 232.9 244.59 228.16 249.34 228.16 249.88 232.9" style="fill:#c7c7c7"></polygon><polygon points="255.61 232.9 250.87 232.9 250.32 228.16 255.07 228.16 255.61 232.9" style="fill:#ebebeb"></polygon><polygon points="221.86 238.68 217.12 238.68 216.57 233.93 221.32 233.93 221.86 238.68" style="fill:#ebebeb"></polygon><polygon points="227.59 238.68 222.85 238.68 222.31 233.93 227.06 233.93 227.59 238.68" style="fill:#ebebeb"></polygon><polygon points="233.33 238.68 228.58 238.68 228.04 233.93 232.79 233.93 233.33 238.68" style="fill:#ebebeb"></polygon><polygon points="239.06 238.68 234.32 238.68 233.78 233.93 238.52 233.93 239.06 238.68" style="fill:#ebebeb"></polygon><polygon points="244.8 238.68 240.05 238.68 239.51 233.93 244.26 233.93 244.8 238.68" style="fill:#ebebeb"></polygon><polygon points="250.53 238.68 245.79 238.68 245.25 233.93 249.99 233.93 250.53 238.68" style="fill:#ebebeb"></polygon><polygon points="256.27 238.68 251.52 238.68 250.98 233.93 255.73 233.93 256.27 238.68" style="fill:#c7c7c7"></polygon><polygon points="222.52 244.45 217.77 244.45 217.23 239.71 221.98 239.71 222.52 244.45" style="fill:#ebebeb"></polygon><polygon points="228.25 244.45 223.51 244.45 222.97 239.71 227.71 239.71 228.25 244.45" style="fill:#ebebeb"></polygon><polygon points="233.99 244.45 229.24 244.45 228.7 239.71 233.45 239.71 233.99 244.45" style="fill:#ebebeb"></polygon><polygon points="239.72 244.45 234.98 244.45 234.44 239.71 239.18 239.71 239.72 244.45" style="fill:#ebebeb"></polygon><polygon points="245.46 244.45 240.71 244.45 240.17 239.71 244.92 239.71 245.46 244.45" style="fill:#c7c7c7"></polygon><polygon points="251.19 244.45 246.45 244.45 245.91 239.71 250.65 239.71 251.19 244.45" style="fill:#ebebeb"></polygon><polygon points="256.93 244.45 252.18 244.45 251.64 239.71 256.39 239.71 256.93 244.45" style="fill:#ebebeb"></polygon><polygon points="223.18 250.23 218.43 250.23 217.89 245.48 222.63 245.48 223.18 250.23" style="fill:#ebebeb"></polygon><polygon points="228.91 250.23 224.16 250.23 223.62 245.48 228.37 245.48 228.91 250.23" style="fill:#c7c7c7"></polygon><polygon points="234.65 250.23 229.9 250.23 229.36 245.48 234.1 245.48 234.65 250.23" style="fill:#ebebeb"></polygon><polygon points="240.38 250.23 235.63 250.23 235.09 245.48 239.84 245.48 240.38 250.23" style="fill:#ebebeb"></polygon><polygon points="246.11 250.23 241.37 250.23 240.83 245.48 245.57 245.48 246.11 250.23" style="fill:#ebebeb"></polygon><polygon points="251.85 250.23 247.1 250.23 246.56 245.48 251.31 245.48 251.85 250.23" style="fill:#ebebeb"></polygon><polygon points="257.58 250.23 252.84 250.23 252.3 245.48 257.04 245.48 257.58 250.23" style="fill:#ebebeb"></polygon><polygon points="241.59 240.24 241.93 240.8 242.56 240.89 242.16 241.33 242.34 241.95 241.75 241.66 241.23 241.95 241.27 241.33 240.77 240.89 241.38 240.8 241.59 240.24" style="fill:#FFC727"></polygon><path d="M225.05,239.77a2.39,2.39,0,0,0-2.13,2.76,2.08,2.08,0,0,0,1.25,1.52,3.66,3.66,0,0,0,2,.15,2.84,2.84,0,0,0,1.69-.81,1.77,1.77,0,0,0,.41-1.78,2,2,0,0,0-1.47-1.33,3.47,3.47,0,0,0-2,0,3.51,3.51,0,0,1,2-.13,2.25,2.25,0,0,1,1.62,1.42,2,2,0,0,1-.42,2,2.92,2.92,0,0,1-1.79.91,3.85,3.85,0,0,1-2.11-.21,2.32,2.32,0,0,1-1.36-1.7,2.39,2.39,0,0,1,.54-1.93A2.52,2.52,0,0,1,225.05,239.77Z" style="fill:#455a64"></path><path d="M241.77,234a2.39,2.39,0,0,0-2.36,2.56,2.1,2.1,0,0,0,1.15,1.6,3.76,3.76,0,0,0,2,.3,2.85,2.85,0,0,0,1.76-.67,1.76,1.76,0,0,0,.56-1.73,2.06,2.06,0,0,0-1.38-1.43,3.72,3.72,0,0,0-2-.15,3.71,3.71,0,0,1,2.06,0A2.25,2.25,0,0,1,245,236a1.93,1.93,0,0,1-.57,1.91,3,3,0,0,1-1.87.76,4,4,0,0,1-2.11-.36,2.29,2.29,0,0,1-1.23-1.79,2.35,2.35,0,0,1,.68-1.86A2.54,2.54,0,0,1,241.77,234Z" style="fill:#455a64"></path></g><g id="freepik--Lines--inject-34"><path d="M275.13,109a94.88,94.88,0,0,1,5.59-8.76,93.26,93.26,0,0,1,6.4-8.18,96.24,96.24,0,0,1-5.59,8.76A96.33,96.33,0,0,1,275.13,109Z" style="fill:#263238"></path><path d="M256.26,104.7A96.3,96.3,0,0,1,254,94.55a95.77,95.77,0,0,1-1.26-10.31A93.73,93.73,0,0,1,255,94.38,96.25,96.25,0,0,1,256.26,104.7Z" style="fill:#263238"></path><path d="M239.9,115a94.88,94.88,0,0,1-8.76-5.59A93.26,93.26,0,0,1,223,103a109.6,109.6,0,0,1,16.94,12Z" style="fill:#263238"></path><path d="M229.52,134.92a53.51,53.51,0,0,1-14.36,2.46,53.69,53.69,0,0,1,14.36-2.46Z" style="fill:#263238"></path><path d="M286.66,148.1a44.08,44.08,0,0,1,6,3.64,43.57,43.57,0,0,1,5.44,4.46,43.58,43.58,0,0,1-6-3.64A44.38,44.38,0,0,1,286.66,148.1Z" style="fill:#263238"></path><path d="M285.44,125.35a93.9,93.9,0,0,1,10.15-2.25,96.08,96.08,0,0,1,10.31-1.26,93.73,93.73,0,0,1-10.14,2.25A98.56,98.56,0,0,1,285.44,125.35Z" style="fill:#263238"></path><path d="M233.74,105.24a19.56,19.56,0,0,1,6.33,6.08,16.82,16.82,0,0,1-3.51-2.68A17.59,17.59,0,0,1,233.74,105.24Z" style="fill:#263238"></path><path d="M293.39,95.83c-1.45,1.64-3,3.19-4.52,4.74s-3.11,3.05-4.69,4.54-3.21,3-4.86,4.37l-2.48,2.13c-.86.68-1.69,1.39-2.56,2,.72-.83,1.48-1.61,2.22-2.41l2.3-2.33c1.53-1.55,3.11-3,4.69-4.54s3.21-2.95,4.86-4.37S291.66,97.17,293.39,95.83Z" style="fill:#263238"></path><path d="M289.82,131.66A101.09,101.09,0,0,1,300.2,134a98.73,98.73,0,0,1,10.13,3.27,98.14,98.14,0,0,1-10.39-2.31A98.56,98.56,0,0,1,289.82,131.66Z" style="fill:#263238"></path><path d="M227.58,131.43a73.38,73.38,0,0,1-9,0,71.53,71.53,0,0,1-9-1,71.45,71.45,0,0,1,9,0A73.42,73.42,0,0,1,227.58,131.43Z" style="fill:#263238"></path></g><g id="freepik--character-1--inject-34"><path d="M222.37,438.3c-2.15.69-63.39-.1-65.7-1.62-.89-.56-1.29-9.49-1.47-20.29v-.34c0-2.22-.07-4.52-.08-6.84,0-.32,0-.64,0-1-.09-15.59.16-31.77.16-31.77l41,.41L195,408.36l0,1.25-.25,6.51,0,.67s23.3,10.79,25.67,12.72S224.52,437.61,222.37,438.3Z" style="fill:#ad6359"></path><path d="M204,421c-.16,0-.25-.09-.26-.14Z" style="fill:#FFC727"></path><path d="M222.37,438.29c-2.15.7-63.39-.09-65.7-1.61-.79-.49-1.2-7.6-1.41-16.77,11.22,2.35,54.71,11.14,55.9,7.42.47-1.46-3.25-4-5.6-5.41,6.43,3.06,13.55,6.57,14.8,7.6C222.7,431.44,224.52,437.61,222.37,438.29Z" style="fill:#263238"></path><path d="M142.7,200.07s9.2,103.49,10.7,111.38c.34,1.8.56,11.58.7,24.15.32,27.43.13,76.91.13,76.91H197.4s-1.29-85.72-3.2-101.5-14.12-110.94-14.12-110.94Z" style="fill:#263238"></path><path d="M195.44,405c-6.73-.14-4.8-.2-11.53-.26-3.3,0-25-.22-28,.29a.07.07,0,0,0,0,.13c3.08.51,24.74.33,28,.29,6.73-.06,4.8-.12,11.53-.26A.1.1,0,1,0,195.44,405Z" style="fill:#455a64"></path><path d="M162.43,356q-.08-9.39-.14-18.78c0-6.06,0-12.13-.32-18.19-.59-12.27-3.08-24.33-4.85-36.46s-3.24-24.31-4.58-36.5c-1.5-13.68-2.83-27.38-4.23-41.06,0-.1-.16-.09-.15,0,2,24.44,4.3,48.87,7.69,73.16q1.26,9.06,2.76,18.09c1,6.09,2,12.19,2.49,18.35s.54,12.08.6,18.13q.11,9.38.19,18.77c.14,13.9.27,35.29.41,49.19a.21.21,0,0,0,.41,0C162.62,388.27,162.52,368.38,162.43,356Z" style="fill:#455a64"></path><path d="M133.6,200.07s18.3,103.49,19.8,111.38c.34,1.8.56,11.58.7,24.15v0l20.57-135.57Z" style="fill:#455a64"></path><path d="M120.28,441.78c-2.23-.35-56.51-28.72-57.89-31.11-.54-.9,3.14-9.05,7.86-18.77l.15-.31c1-2,20.35-34.69,20.35-34.69l33.38,19.6-18.51,33-.32.59s15.92,20.15,17.16,22.94S122.51,442.14,120.28,441.78Z" style="fill:#ad6359"></path><path d="M120.28,441.78c-2.23-.35-56.51-28.72-57.89-31.12-.46-.76,2.15-6.83,5.87-14.63,7.77,5.89,45.34,34.1,48.08,31.17.58-.62.15-2.08-.62-3.65,3.3,4.35,6.23,8.34,6.74,9.48C123.68,435.81,122.51,442.14,120.28,441.78Z" style="fill:#263238"></path><path d="M110.42,408.3,70.86,383.85s45.77-65.48,46-71.29c.33-8.65,4.47-44.34,8-73.24,0,0-6.61-15.65,5.75-39.28h49.56s-3.32,22.49-9,36.75a65.86,65.86,0,0,0-11,5s-4.94,64.43-5.12,72.47C154.6,330.17,110.42,408.3,110.42,408.3Z" style="fill:#263238"></path><path d="M112.84,399.17c-5.71-3.58-4-2.64-9.76-6.15-2.82-1.72-21.31-13-24.21-14.15-.07,0-.13.07-.07.11,2.38,2,21.06,13,23.91,14.65,5.81,3.41,4.18,2.37,10,5.7A.09.09,0,1,0,112.84,399.17Z" style="fill:#455a64"></path><path d="M173,235.81a81.72,81.72,0,0,0-12.9,6,.14.14,0,0,0,.12.26c4.34-1.86,8.77-3.65,13-5.75A.28.28,0,0,0,173,235.81Z" style="fill:#455a64"></path><path d="M166.91,228.63c.43-2.59.78-5.18,1-7.8a70.14,70.14,0,0,0-.16-14.63.13.13,0,0,0-.25,0,133.69,133.69,0,0,1-1.18,20.2c-.48,3.22-2.1,8.06,1.26,8.56s5.65-7.61,6.06-9.83a74,74,0,0,0,.73-19.15c0-.15-.28-.18-.28,0a142,142,0,0,1-.73,14.52c-.2,2.24-2,14.61-5.88,13.71-.65-.15-1-.79-1.08-1.77a15.44,15.44,0,0,1,.51-3.8" style="fill:#455a64"></path><path d="M167.58,234.53a21.43,21.43,0,0,0-.87,2.56,5.72,5.72,0,0,0-.36,2.11c0,.14.19.15.27.06a7.84,7.84,0,0,0,.9-2c.29-.79.61-1.58.88-2.38A.44.44,0,0,0,167.58,234.53Z" style="fill:#455a64"></path><path d="M136.37,203.16a46.14,46.14,0,0,0-3.71,8.16,50.3,50.3,0,0,0-2.2,8.69c-.28,1.46-.38,3-.54,4.44s-.18,3-.09,4.47a47.2,47.2,0,0,0,1,8.86v.1q-1.71,18.75-3.56,37.48t-3.69,37.47L123.5,314l0,.58a2.2,2.2,0,0,1-.13.64,19,19,0,0,1-1.14,2.17c-.79,1.37-1.61,2.71-2.43,4.05q-2.48,4-5,8c-3.36,5.31-6.79,10.56-10.21,15.82-6.84,10.52-13.8,21-20.77,31.39L104,344.88,114,329c1.67-2.66,3.34-5.32,5-8,.81-1.34,1.62-2.68,2.4-4,.37-.66.8-1.4,1-2a1.33,1.33,0,0,0,.09-.51l.06-.58.11-1.17q1.78-18.74,3.7-37.45t3.83-37.44v.1a47.53,47.53,0,0,1-1-9c-.07-1.51.09-3,.16-4.52s.33-3,.64-4.47a50.93,50.93,0,0,1,2.39-8.68A46.41,46.41,0,0,1,136.37,203.16Z" style="fill:#455a64"></path><path d="M158.56,101.4c-9.36,7.29-7.38,18.66-11.42,24.58-2.48,3.63-10.14,7.22-11.83,11.45-2.78,6.95,3.09,9.76,1.57,13.54-2.15,5.35-9.41,4.59-11.14,13.42s7.61,18.77,30.73,22.42,36.29-4.26,37.47-11.77-6.42-10.38-6.68-16c-.17-3.62,4.72-5.9,5.27-12.52s-5.81-9.08-6.47-14.75,3-19.22-5-26.6S163.18,97.8,158.56,101.4Z" style="fill:#263238"></path><path d="M159.6,101.65a19.17,19.17,0,0,0-6.3,6.61,41.81,41.81,0,0,0-3.75,9,25.3,25.3,0,0,1-2.06,5.39,14.2,14.2,0,0,1-3.3,3.7c-2.62,2.16-5.7,3.74-8.08,6.19s-4.07,5.48-3.37,8.82c.38,1.81,1.5,3.33,2.15,5s.81,3.6-.61,4.86c-1.22,1.07-2.92,1.5-4.29,2.36a15.11,15.11,0,0,0-3.54,3.13,11.4,11.4,0,0,0-2.56,8.84c1,7.29,7.62,11.72,13.76,14.6.85.41,1.71.8,2.58,1.19.13.06.25-.13.12-.2-6.15-3.1-13.29-6.75-15.38-13.89a10.62,10.62,0,0,1,1.52-9.27,13.36,13.36,0,0,1,3.49-3.34c1.31-.88,2.79-1.38,4.12-2.21a4.26,4.26,0,0,0,2.15-3.72,10.54,10.54,0,0,0-1.51-4.7,8.55,8.55,0,0,1-1.25-4.94,9.41,9.41,0,0,1,2.07-4.56c2.09-2.67,5.07-4.36,7.76-6.33a15.78,15.78,0,0,0,6-7.56c.56-1.63.93-3.33,1.43-5a46,46,0,0,1,1.6-4.53,22,22,0,0,1,5.29-7.87,12.61,12.61,0,0,1,2-1.48C159.75,101.73,159.67,101.6,159.6,101.65Z" style="fill:#263238"></path><path d="M195.24,169.55a8.86,8.86,0,0,0-1.45-3.45c-.76-1.07-1.7-2-2.55-3a6.64,6.64,0,0,1-1.76-3.23,6.37,6.37,0,0,1,1.22-4.14,31,31,0,0,0,2.27-4,14.56,14.56,0,0,0,1.09-4.29,14.88,14.88,0,0,0-1.93-8.75c-.73-1.34-1.57-2.61-2.31-3.94a19.34,19.34,0,0,1-1.85-4.61c-.88-3.55-.93-7.25-1.62-10.84a55.79,55.79,0,0,0-3.28-10.72c0-.08-.16,0-.13.08a48.41,48.41,0,0,1,2.86,9.67c.59,3.15.72,6.33,1.13,9.49a23.13,23.13,0,0,0,1,4.59,24.32,24.32,0,0,0,1.84,4c1.45,2.63,3,5.23,3.24,8.29a14.25,14.25,0,0,1-1.9,8.63c-1.33,2.25-3.16,4.72-2.22,7.47.79,2.34,2.91,3.81,4.27,5.78a9.2,9.2,0,0,1,1.23,7.42c-1.55,6.44-8.23,9.37-14.35,9.4a.15.15,0,0,0,0,.3c5.31.18,11.19-1.88,13.91-6.73A11.26,11.26,0,0,0,195.24,169.55Z" style="fill:#263238"></path><path d="M170.38,154.82c12.34,13.67,28.48,26.4,35.74,25.85,8.41-.65,30.48-7.3,45.83-17.4,3.23-2.13-13.13-22.19-15.57-21-6.8,3.37-27.42,15-28.8,15.55-1.59.62-20.57-8.61-29.28-13.05C164.56,137.81,161.64,145.14,170.38,154.82Z" style="fill:#ad6359"></path><path d="M236.28,149.75c1.1-2.9,7.89-18.7,10.07-22.13,4-6.32,9.58-12,12.53-10.89,2.35.85,1.11,5.15,1.11,5.15s3.93-3.12,6.43-1.18-.94,6.06-.94,6.06,4.27-2.91,6.63-.79-1.8,5.68-1.8,5.68,3.78-2.85,5-.29c1.45,3.09-6.11,7.54-8.64,11.27-.39.56-4.91,10.26-9,16a17.43,17.43,0,0,1-5.76,4.66Z" style="fill:#ad6359"></path><path d="M270.67,131.73c-5.55,3.28-7.42,5.68-10.31,11.34-.06.11-.24.05-.19-.07,2.33-5.8,4.24-9.14,10.36-11.55C270.83,131.33,270.94,131.57,270.67,131.73Z" style="fill:#263238"></path><path d="M265.84,126.67c-5.14,4.35-7,7.1-10,13.06,0,.09-.19,0-.15-.06,2.44-6.1,4.14-9.55,9.84-13.23C265.83,126.28,266.07,126.47,265.84,126.67Z" style="fill:#263238"></path><path d="M259.88,122.08c-4.54,4.69-6.59,7.67-8.59,13.89a.12.12,0,0,1-.24-.06c1.43-6.54,4-10.28,8.68-14C260.05,121.7,260.17,121.78,259.88,122.08Z" style="fill:#263238"></path><path d="M233.12,149s-.78-8.06-.34-11.67,7-16.48,9.89-15.21c3.69,1.63,1.35,9.81-.32,13.66,0,0,8.55,3.78,8.13,10S233.12,149,233.12,149Z" style="fill:#ad6359"></path><path d="M243.41,133c-.24,1-.52,2-.8,2.93l-.13-.34a17.49,17.49,0,0,1,3.63,2.41,19.23,19.23,0,0,1,3,3.19,16,16,0,0,1,2.12,3.81,14.09,14.09,0,0,1,.94,4.22,23.75,23.75,0,0,0-1.59-3.93,20.53,20.53,0,0,0-2.25-3.51,27.09,27.09,0,0,0-6.1-5.7l-.22-.15.09-.19C242.52,134.78,242.94,133.86,243.41,133Z" style="fill:#263238"></path><path d="M230.28,142.38,236,178.77s-20,4.87-29.86,4.17-32.79-19.63-40.51-29-7.75-19.45,7.74-12.82,33.21,14.88,33.7,15S230.28,142.38,230.28,142.38Z" style="fill:#FFC727"></path><path d="M171.87,142.21a8.8,8.8,0,0,0-.19-1.77l-.1,0a7.81,7.81,0,0,0-.14,1.8,8.67,8.67,0,0,0,.26,2A8.12,8.12,0,0,0,171.87,142.21ZM178.43,164a9.41,9.41,0,0,0-.26-2,8.8,8.8,0,0,0-.18,2,9.24,9.24,0,0,0,.26,2A8.76,8.76,0,0,0,178.43,164ZM194.86,162a8.83,8.83,0,0,0-.26-2,8.79,8.79,0,0,0-.17,2,8.67,8.67,0,0,0,.26,2A8.24,8.24,0,0,0,194.86,162Zm37.44-6.6a1.28,1.28,0,0,0,0-.19h0l-.27-1.71a8.29,8.29,0,0,0-.14,1.92,8.17,8.17,0,0,0,.26,2A8.22,8.22,0,0,0,232.3,155.36Zm-48-8.3c0-.41,0-.82-.1-1.23h0l-.27-.12a10.31,10.31,0,0,0,0,1.36,8.1,8.1,0,0,0,.25,2A8.67,8.67,0,0,0,184.26,147.06Zm9,4.6a8.83,8.83,0,0,0-2,.26,9.65,9.65,0,0,0,4-.09A9.29,9.29,0,0,0,193.27,151.66Zm.46,21.49a8.83,8.83,0,0,0-2,.26,8.8,8.8,0,0,0,2,.18,9.34,9.34,0,0,0,2-.27A9.33,9.33,0,0,0,193.73,173.15Zm-29.61-25.33a9,9,0,0,0-1.61-1.25,9.75,9.75,0,0,0,2.92,2.8A8.89,8.89,0,0,0,164.12,147.82Zm21.54,9.91a8.66,8.66,0,0,0-1.61-1.25,8.6,8.6,0,0,0,1.31,1.56,8.32,8.32,0,0,0,1.62,1.25A8.26,8.26,0,0,0,185.66,157.73Zm39.1-9.19a8.57,8.57,0,0,0-1.61-1.25,8.47,8.47,0,0,0,1.31,1.55,8.57,8.57,0,0,0,1.61,1.25A8.53,8.53,0,0,0,224.76,148.54ZM219,155.89a8.52,8.52,0,0,0-.26-2,8.12,8.12,0,0,0-.17,2,8.66,8.66,0,0,0,.25,2A8.21,8.21,0,0,0,219,155.89Zm8.44,20.37a9.38,9.38,0,0,0-.24-2,8.29,8.29,0,0,0-.18,2,8.15,8.15,0,0,0,.26,2A7.69,7.69,0,0,0,227.45,176.26Zm-15.76-2.32a8.67,8.67,0,0,0-.26-2,9.33,9.33,0,0,0-.17,2,8.83,8.83,0,0,0,.26,2A9.37,9.37,0,0,0,211.69,173.94Zm.48-11.07a8.76,8.76,0,0,0-2,.26,9.28,9.28,0,0,0,2,.17,8.67,8.67,0,0,0,2-.26A9.29,9.29,0,0,0,212.17,162.87Zm22.3,6.15c-.12,0-.25,0-.36,0a8.17,8.17,0,0,0-2,.26,9.32,9.32,0,0,0,2,.16,2.88,2.88,0,0,0,.41,0Zm-31.34,9.57a8.57,8.57,0,0,0-1.61-1.25,8.21,8.21,0,0,0,1.31,1.55,8.47,8.47,0,0,0,1.61,1.25A8.21,8.21,0,0,0,203.13,178.59Zm-.21-21.06a8.28,8.28,0,0,0-1.62-1.24,9.4,9.4,0,0,0,1.32,1.55,8.32,8.32,0,0,0,1.62,1.25A8.26,8.26,0,0,0,202.92,157.53ZM220.43,169a8.47,8.47,0,0,0-1.61-1.23,9.27,9.27,0,0,0,1.31,1.55,9,9,0,0,0,1.61,1.25A8.6,8.6,0,0,0,220.43,169Zm-17.89-.75a9,9,0,0,0-1.25,1.61,8.6,8.6,0,0,0,1.57-1.31A9,9,0,0,0,204.1,167,9.34,9.34,0,0,0,202.54,168.26Zm23.85-5.69a9.07,9.07,0,0,0-1.25,1.62,8.64,8.64,0,0,0,1.55-1.32,8.17,8.17,0,0,0,1.25-1.61A8.47,8.47,0,0,0,226.39,162.57Zm-14.47-9.14h0l-.21.21a8.57,8.57,0,0,0-1.25,1.61A8.6,8.6,0,0,0,212,154a12.18,12.18,0,0,0,.92-1.1Zm5.16,26.07a8.9,8.9,0,0,0-1.25,1.61,9.75,9.75,0,0,0,2.8-2.92A8.53,8.53,0,0,0,217.08,179.5Zm-29.42-13a8.85,8.85,0,0,0-1.24,1.61,8.89,8.89,0,0,0,1.55-1.31,8.57,8.57,0,0,0,1.25-1.61A8.21,8.21,0,0,0,187.66,166.52Zm-11.53-14.86a8.57,8.57,0,0,0-1.25,1.61,9.51,9.51,0,0,0,2.81-2.93A8.71,8.71,0,0,0,176.13,151.66Z" style="fill:#fff"></path><path d="M226.06,162.65c-.4-2.64-1.87-13.16-2-15.78,0-.08.11-.07.13,0,.68,2.57,2.39,13.12,2.78,15.76.79,5.28,1.65,10.58,2,15.91a.09.09,0,0,1-.17,0C227.61,173.33,226.87,168,226.06,162.65Z" style="fill:#263238"></path><path d="M165.63,153.94c7.72,9.37,30.66,28.3,40.51,29a59.52,59.52,0,0,0,11.45-.68l-56.69-41C159.71,144.09,161.65,149.11,165.63,153.94Z" style="opacity:0.1"></path><path d="M179.93,179.2l2,26.65-10.27-.61L169,199.7l-4.44,5.11c-13.23-.84-30.21-2-36.35-2.89,0,0,12.21-48.69,24.56-60.33,6.18-5.82,12.89-4.88,16.87-.22,1,1.18,12.76,19.24,13.66,25.88C184.12,173.11,179.93,179.2,179.93,179.2Z" style="fill:#FFC727"></path><path d="M128.25,201.91c6.14.88,23.12,2.06,36.35,2.89l4.44-5.09,2.58,5.54,10.27.6-2-26.65s4.19-6.09,3.41-11.95c-.49-3.64-4.25-10.71-7.7-16.55-.06-.08-.1-.16-.15-.24-2.79-4.71-5.36-8.56-5.81-9.08-3.83-4.49-10.17-5.53-16.14-.44h0a.87.87,0,0,0-.15.13c-.19.16-.39.33-.57.51a31.28,31.28,0,0,0-5,6.55c-.07.12-.15.24-.22.37a128.89,128.89,0,0,0-8.93,19.73l-.09.25C132.53,184.84,128.25,201.91,128.25,201.91Z" style="fill:#FFC727"></path><path d="M156.55,154.56a9.32,9.32,0,0,0-.26-2,8.76,8.76,0,0,0-.18,2,8.67,8.67,0,0,0,.26,2A8.72,8.72,0,0,0,156.55,154.56Zm5.3,24.22a8.81,8.81,0,0,0-.26-2,9.37,9.37,0,0,0-.17,2,8.74,8.74,0,0,0,.26,2A9.37,9.37,0,0,0,161.85,178.78Zm-11.57,18.53a8.23,8.23,0,0,0-.26-2,10.16,10.16,0,0,0,.09,4.06A8.79,8.79,0,0,0,150.28,197.31ZM178.43,164a9.41,9.41,0,0,0-.26-2,8.8,8.8,0,0,0-.18,2,9.24,9.24,0,0,0,.26,2A8.76,8.76,0,0,0,178.43,164ZM139.69,180.7a8.67,8.67,0,0,0-.26-2,9.28,9.28,0,0,0-.17,2,8.74,8.74,0,0,0,.26,2A9.33,9.33,0,0,0,139.69,180.7Zm-7.84,15.05a9.3,9.3,0,0,0-.25-2,8.29,8.29,0,0,0-.18,2,8.66,8.66,0,0,0,.26,2A8.2,8.2,0,0,0,131.85,195.75Zm34.52-37.93a8.74,8.74,0,0,0-2,.26,8.76,8.76,0,0,0,2,.18,9.41,9.41,0,0,0,2-.26A8.8,8.8,0,0,0,166.37,157.82Zm-26.8,43.64a8.67,8.67,0,0,0-2,.26,9.29,9.29,0,0,0,2,.17,8.84,8.84,0,0,0,2-.26A9.37,9.37,0,0,0,139.57,201.46Zm8.41-27a10.07,10.07,0,0,0-2,.26,8.21,8.21,0,0,0,2,.18,9.32,9.32,0,0,0,2-.26A8.76,8.76,0,0,0,148,174.5Zm31.34.49a8.67,8.67,0,0,0-2,.26,7.67,7.67,0,0,0,2,.17,8.67,8.67,0,0,0,2-.26A9.14,9.14,0,0,0,179.32,175ZM159.6,190.28a8.83,8.83,0,0,0-2,.26,9.28,9.28,0,0,0,2,.17,8.67,8.67,0,0,0,2-.26A8.2,8.2,0,0,0,159.6,190.28Zm18.52.19a8.67,8.67,0,0,0-2,.26,9.24,9.24,0,0,0,2,.17,8.61,8.61,0,0,0,2-.26A9.19,9.19,0,0,0,178.12,190.47Zm-23-49.7a11,11,0,0,0-1.63.17h0a.88.88,0,0,0-.15.12,9.09,9.09,0,0,0,1.8.13,7.7,7.7,0,0,0,2-.26A8.58,8.58,0,0,0,155.17,140.77Zm9,7a9,9,0,0,0-1.61-1.25,9.75,9.75,0,0,0,2.92,2.8A8.89,8.89,0,0,0,164.12,147.82ZM156.86,168a8.8,8.8,0,0,0-1.61-1.23,9.27,9.27,0,0,0,1.31,1.55,9,9,0,0,0,1.61,1.25A8.67,8.67,0,0,0,156.86,168Zm-10-17.61-.21-.19-.22.38.13.12a8.57,8.57,0,0,0,1.61,1.25A8.6,8.6,0,0,0,146.88,150.36Zm-7.82,16.9a2.41,2.41,0,0,0-.16.42,7.16,7.16,0,0,0,1.35,1A9,9,0,0,0,139.06,167.26ZM161,202.11a9.43,9.43,0,0,0-1.61-1.24,9,9,0,0,0,1.31,1.56,9.37,9.37,0,0,0,1.61,1.25A9,9,0,0,0,161,202.11Zm17.4-.82A8.9,8.9,0,0,0,176.8,200a9.44,9.44,0,0,0,2.92,2.8A8.47,8.47,0,0,0,178.41,201.29Zm-6.12-18.66a9.9,9.9,0,0,0-1.61-1.25,8.21,8.21,0,0,0,1.31,1.56,8.57,8.57,0,0,0,1.61,1.25A9,9,0,0,0,172.29,182.63Zm-31.93,8.85a9,9,0,0,0-1.61-1.24,9.33,9.33,0,0,0,2.93,2.8A9.9,9.9,0,0,0,140.36,191.48Zm7-28.5a9.48,9.48,0,0,0-1.25,1.61,9.63,9.63,0,0,0,2.81-2.92A9,9,0,0,0,147.32,163Zm2,22.25a8.17,8.17,0,0,0-1.25,1.61,8.15,8.15,0,0,0,1.55-1.32,8.57,8.57,0,0,0,1.25-1.61A8.64,8.64,0,0,0,149.35,185.23ZM169,194.89a8.47,8.47,0,0,0-1.25,1.61,8.89,8.89,0,0,0,1.55-1.31,9,9,0,0,0,1.25-1.61A7.85,7.85,0,0,0,169,194.89Zm-.54-26.12a8.63,8.63,0,0,0-1.25,1.62,9.95,9.95,0,0,0,2.8-2.93A8.21,8.21,0,0,0,168.49,168.77Zm7.69-17.15-.05,0a8.57,8.57,0,0,0-1.25,1.61A9,9,0,0,0,176.4,152Z" style="fill:#fff"></path><path d="M181,193.39c-.31-2.44-.54-4.36-.77-6.81s-.49-4.89-.69-7.35v-.15l.11-.16a18.58,18.58,0,0,0,2.87-5.94,13.94,13.94,0,0,0,.52-3.26,11.24,11.24,0,0,0-.3-3.27,38.22,38.22,0,0,0-2.25-6.36c-.92-2.07-1.67-3.81-2.71-5.84-.18-.31-.05-.38.11-.12,1.07,1.67,2.21,4,3.1,5.73a33.64,33.64,0,0,1,2.58,6.39,11.18,11.18,0,0,1,.39,3.5,14.08,14.08,0,0,1-.52,3.48,18.15,18.15,0,0,1-3.11,6.25l.1-.31c.16,2.45.27,4.91.39,7.37.12,2.21.25,4.59.3,6.81C181.07,193.6,181,194.29,181,193.39Z" style="fill:#263238"></path><path d="M179.71,156.22a10.43,10.43,0,0,1,1,2.35,10.75,10.75,0,0,1,.32,1.24,5.15,5.15,0,0,1,.1,1.3c-.32-.81-.62-1.59-.87-2.4A13.87,13.87,0,0,1,179.71,156.22Z" style="fill:#263238"></path><path d="M166.36,144.38c1.26,2.91,2.39,5.87,3.48,8.86s2,6,2.84,9.09a35.3,35.3,0,0,1,.91,4.71,12.7,12.7,0,0,1-.35,4.83,24.58,24.58,0,0,1-4.28,8.59l.08-.23c.11,3.05.22,6.11.28,9.16s.12,6.11.13,9.17q-.36-4.58-.62-9.15c-.2-3-.35-6.1-.49-9.15v-.12l.08-.11a27.47,27.47,0,0,0,2.44-4,21.94,21.94,0,0,0,1.7-4.35c.93-3,.22-6.15-.47-9.22s-1.63-6.1-2.62-9.11S167.45,147.35,166.36,144.38Z" style="fill:#263238"></path><path d="M168.66,157.54a.85.85,0,1,1-.91-.78A.86.86,0,0,1,168.66,157.54Z" style="fill:#263238"></path><path d="M171,165.93a.87.87,0,0,1-.78.92.85.85,0,0,1-.13-1.7A.86.86,0,0,1,171,165.93Z" style="fill:#263238"></path><path d="M169.53,175.06a.85.85,0,0,1-.78.91.84.84,0,0,1-.91-.78.85.85,0,0,1,.78-.91A.86.86,0,0,1,169.53,175.06Z" style="fill:#263238"></path><path d="M166.42,183.91a.85.85,0,0,1-1.69.13.85.85,0,1,1,1.69-.13Z" style="fill:#263238"></path><path d="M166.74,192.65a.85.85,0,0,1-.78.91.85.85,0,1,1,.78-.91Z" style="fill:#263238"></path><path d="M164.26,177.45a47.59,47.59,0,0,1,7,.6c1.15.2,2.27.46,3.39.73.56.14,1.13.26,1.69.38a7.25,7.25,0,0,0,1.8.19s0,.08,0,.09a14,14,0,0,1-1.71.1,12.87,12.87,0,0,1-1.64-.19c-1.16-.19-2.31-.43-3.47-.64-2.33-.41-4.67-.82-7-1.07A.1.1,0,0,1,164.26,177.45Z" style="fill:#263238"></path><path d="M158.7,179.94a52.27,52.27,0,0,1,5.72-.72c1-.06,1.91-.07,2.87-.05l1.38.05c.51,0,1,.12,1.51.14,0,0,.06.08,0,.08-.48,0-1,.08-1.43.1l-1.44.07c-1,0-1.91.11-2.87.15-1.92.09-3.83.19-5.74.34A.08.08,0,0,1,158.7,179.94Z" style="fill:#263238"></path><polygon points="213.59 185.41 210.95 218.58 192.7 218.58 190.07 185.41 213.59 185.41" style="fill:#FFC727"></polygon><rect x="188.34" y="182.42" width="26.82" height="4.84" style="fill:#455a64"></rect><polygon points="213.32 182.42 190.18 182.42 191.53 176.99 211.97 176.99 213.32 182.42" style="fill:#37474f"></polygon><path d="M208.16,202.29c0,4.31-2.83,7.8-6.33,7.8s-6.34-3.49-6.34-7.8,2.84-7.8,6.34-7.8S208.16,198,208.16,202.29Z" style="fill:#fff"></path><path d="M151.32,143.49c-10.73,12.74-31.61,43.17-25.73,50.55,9.68,12.12,34,23.6,41.68,26,3.33,1,16.22-22.7,13.14-24.82-3.69-2.55-30-12.46-29.76-14.74.13-1.29,3.61-12,6.8-25.74C161.14,138.73,156.44,137.42,151.32,143.49Z" style="fill:#ad6359"></path><path d="M168.3,193s10.3-2.59,17.12-4c3.81-.77,10.45-1.51,13.5-.79,4.57,1.07,23,8.45,21.3,12.95-1.53,4.08-16.55-4.27-16.55-4.27s15.9,7.09,13.15,11.66-18.47-7.12-18.47-7.12,16.18,7.64,12.6,11.91c-2.71,3.22-17.54-6.57-17.54-6.57s13.86,6.67,11.22,10.11c-2.92,3.8-17.17-4.38-17.17-4.38-8.18,7.6-15.17,8.21-20.19,7.47C166.06,219.84,168.3,193,168.3,193Z" style="fill:#ad6359"></path><path d="M198.32,194.13c1.9.76,3.83,1.52,5.65,2.45s3.62,1.93,5.35,3a35.38,35.38,0,0,1,6.32,4.9c-3.64-3.07-10.12-6.5-11.94-7.44s-3.6-1.95-5.42-2.88C198.24,194.17,198.28,194.11,198.32,194.13Z" style="fill:#263238"></path><path d="M194.84,200.65a64.92,64.92,0,0,1,13.78,7.1c.17.11.06.16-.12.06-2.28-1.24-11.66-5.86-13.69-7.11C194.78,200.68,194.8,200.64,194.84,200.65Z" style="fill:#263238"></path><path d="M190.85,205.71a44.17,44.17,0,0,1,10,5.38c.17.1,0,.16-.16.06-3.25-1.78-5.54-2.86-9.89-5.31C190.73,205.8,190.77,205.68,190.85,205.71Z" style="fill:#263238"></path><path d="M171.7,190.53,155.22,221.9s-26.6-19.15-31-28.93c-4-8.78,19.89-42,25.34-48.44s10.52-7.26,9.25,4-7.26,31.43-7.28,31.75S171.7,190.53,171.7,190.53Z" style="fill:#FFC727"></path><path d="M169,194.89a8.47,8.47,0,0,0-1.25,1.61,7.73,7.73,0,0,0,1.39-1.15l.63-1.2C169.52,194.39,169.27,194.64,169,194.89ZM149.27,207.2a9.07,9.07,0,0,0-1.25,1.62,9.87,9.87,0,0,0,2.82-2.94A8.72,8.72,0,0,0,149.27,207.2Zm-18.76-22.84a9,9,0,0,0-1.24,1.61,9,9,0,0,0,1.56-1.31,9.37,9.37,0,0,0,1.25-1.61A9,9,0,0,0,130.51,184.36Zm18.84.87a8.17,8.17,0,0,0-1.25,1.61,8.15,8.15,0,0,0,1.55-1.32,8.57,8.57,0,0,0,1.25-1.61A8.64,8.64,0,0,0,149.35,185.23Zm-2-22.25a9.48,9.48,0,0,0-1.25,1.61,9.63,9.63,0,0,0,2.81-2.92A9,9,0,0,0,147.32,163Zm-7,28.5a9,9,0,0,0-1.61-1.24,9.33,9.33,0,0,0,2.93,2.8A9.9,9.9,0,0,0,140.36,191.48Zm1.83,18.83a9,9,0,0,0-1.62-1.24,8.58,8.58,0,0,0,1.32,1.55,8.26,8.26,0,0,0,1.61,1.25A9,9,0,0,0,142.19,210.31Zm18.82-8.2a9.43,9.43,0,0,0-1.61-1.24,9,9,0,0,0,1.31,1.56,9.37,9.37,0,0,0,1.61,1.25A9,9,0,0,0,161,202.11Zm-22.09-35a8.26,8.26,0,0,0-1.61-1.25,8.59,8.59,0,0,0,1.31,1.55,8.3,8.3,0,0,0,1.63,1.25A9,9,0,0,0,138.92,167.13Zm8-16.77a11.6,11.6,0,0,0-1.15-1l-.14.18a14.57,14.57,0,0,0,1,1.08,8.57,8.57,0,0,0,1.61,1.25A8.6,8.6,0,0,0,146.88,150.36Zm8.29-9.59a11,11,0,0,0-1.63.17h0a.88.88,0,0,0-.15.12,9.09,9.09,0,0,0,1.8.13,7.7,7.7,0,0,0,2-.26A8.58,8.58,0,0,0,155.17,140.77Zm-4.5,77.74.47.35h0a6.09,6.09,0,0,0,1-.19A7.65,7.65,0,0,0,150.67,218.51Zm8.93-28.23a8.83,8.83,0,0,0-2,.26,9.28,9.28,0,0,0,2,.17,8.67,8.67,0,0,0,2-.26A8.2,8.2,0,0,0,159.6,190.28Zm-35.83.08a3.1,3.1,0,0,0,0,.43,7.6,7.6,0,0,0,1.88-.26A9.07,9.07,0,0,0,123.77,190.36Zm8.49-16.6a8.83,8.83,0,0,0-2,.26,9.33,9.33,0,0,0,2,.17,8.61,8.61,0,0,0,2-.26A9.24,9.24,0,0,0,132.26,173.76Zm15.72.74a10.07,10.07,0,0,0-2,.26,8.21,8.21,0,0,0,2,.18,9.32,9.32,0,0,0,2-.26A8.76,8.76,0,0,0,148,174.5Zm-8.41,27a8.67,8.67,0,0,0-2,.26,9.29,9.29,0,0,0,2,.17,8.84,8.84,0,0,0,2-.26A9.37,9.37,0,0,0,139.57,201.46Zm-7.72-5.71a9.3,9.3,0,0,0-.25-2,8.29,8.29,0,0,0-.18,2,8.66,8.66,0,0,0,.26,2A8.2,8.2,0,0,0,131.85,195.75Zm7.84-15.05a8.67,8.67,0,0,0-.26-2,9.28,9.28,0,0,0-.17,2,8.74,8.74,0,0,0,.26,2A9.33,9.33,0,0,0,139.69,180.7Zm18,31.82a8.67,8.67,0,0,0-.26-2,9.6,9.6,0,0,0,.09,4A9.14,9.14,0,0,0,157.72,212.52Zm-7.44-15.21a8.23,8.23,0,0,0-.26-2,10.16,10.16,0,0,0,.09,4.06A8.79,8.79,0,0,0,150.28,197.31Zm6.27-42.75a9.32,9.32,0,0,0-.26-2,8.76,8.76,0,0,0-.18,2,8.67,8.67,0,0,0,.26,2A8.72,8.72,0,0,0,156.55,154.56Z" style="fill:#fff"></path><path d="M157.42,202.25c1.21-2.38,6.14-11.79,7.58-14,0-.06.13,0,.11.07-1,2.48-5.7,12.06-6.91,14.44-2.43,4.75-4.81,9.56-7.61,14.11a.09.09,0,0,1-.16-.08C152.47,211.83,155,207,157.42,202.25Z" style="fill:#263238"></path><path d="M154.53,167.88c1.09-4.24,2.08-8.51,3.09-12.77,0-.08.16-.05.15,0-.36,2.43-.8,4.83-1.3,7.22.47-1.22.91-2.45,1.33-3.69,0-.09.16,0,.14.05a25.49,25.49,0,0,1-1.72,4.78q-.47,2.17-1,4.35c-.52,2.11-3,11.37-3.38,12.41,3.53,1.46,6.63,3.2,10.07,4.87,1.68.82,3.36,1.65,5,2.51a44.67,44.67,0,0,1,5.12,2.61c.09.06-.26.49-.38.71s-.23.07-.19,0a2.66,2.66,0,0,0,.11-.3c-.84-.28-4.17-2-5-2.37l-5-2.45c-3.41-1.67-10.5-5.12-10.49-5.18C151.18,179.63,154,170,154.53,167.88Z" style="fill:#263238"></path><path d="M158.63,139.7c.16,1,4.53,8,9.2,8.14,1.52,0,2.11-8.25,2.11-8.25l.18-.6,2.56-8.43-9.59-7.22-1.39-1s-.54,2.35-1.2,5.29l-.09.41c0,.17-.08.32-.12.48l-.3,1.33c-.07.34-.14.67-.21,1s-.13.71-.2,1.07A56.45,56.45,0,0,0,158.63,139.7Z" style="fill:#ad6359"></path><path d="M160.5,127.67A17.72,17.72,0,0,0,170.12,139l2.56-8.43-9.59-7.22-1.39-1S161.16,124.73,160.5,127.67Z" style="fill:#263238"></path><path d="M186.38,118.89c.08,15.47-9.18,17.26-12.51,17.27-3,0-13.33-.33-15-15.7s5.48-20.29,12.41-20.69S186.3,103.43,186.38,118.89Z" style="fill:#ad6359"></path><path d="M184.18,116.24c-.36,0-.69-.16-1-.24a1.73,1.73,0,0,1-1-.45.56.56,0,0,1,0-.67,1.34,1.34,0,0,1,1.35-.29,2,2,0,0,1,1.24.73A.59.59,0,0,1,184.18,116.24Z" style="fill:#263238"></path><path d="M173.58,116a9.7,9.7,0,0,0,1-.2,1.74,1.74,0,0,0,1-.41.55.55,0,0,0,0-.67,1.36,1.36,0,0,0-1.34-.34,2,2,0,0,0-1.27.69A.58.58,0,0,0,173.58,116Z" style="fill:#263238"></path><path d="M176,119.86s-.09,0-.08.09c0,1.06-.09,2.27-1,2.62,0,0,0,.07,0,.06C176,122.46,176.17,120.85,176,119.86Z" style="fill:#263238"></path><path d="M175,118.77c-1.7-.12-1.81,3.28-.24,3.38S176.44,118.86,175,118.77Z" style="fill:#263238"></path><path d="M174.35,118.92c-.31.19-.61.52-1,.54s-.71-.34-1-.69c0,0-.06,0-.06,0,0,.65.2,1.32.89,1.44s1.11-.45,1.29-1.1C174.57,119,174.47,118.85,174.35,118.92Z" style="fill:#263238"></path><path d="M181.82,119.83s.08,0,.08.09c-.08,1,0,2.27.95,2.66a0,0,0,0,1,0,.06C181.69,122.43,181.58,120.81,181.82,119.83Z" style="fill:#263238"></path><path d="M182.81,118.77c1.69-.06,1.69,3.34.12,3.39S181.38,118.82,182.81,118.77Z" style="fill:#263238"></path><path d="M183.51,119c.27.18.54.51.86.53s.65-.34.88-.69c0,0,.06,0,.06,0,0,.65-.2,1.33-.83,1.45s-1-.44-1.14-1.09C183.31,119.1,183.41,118.92,183.51,119Z" style="fill:#263238"></path><path d="M175.56,128.49c.24.27.46.63.84.69a2.7,2.7,0,0,0,1.15-.18,0,0,0,0,1,0,.06,1.43,1.43,0,0,1-1.38.47,1.12,1.12,0,0,1-.75-1C175.45,128.47,175.53,128.45,175.56,128.49Z" style="fill:#263238"></path><path d="M179.67,126.86a4.23,4.23,0,0,1-1.66,1.4,1.86,1.86,0,0,1-1.17.12c-.86-.18-.91-1-.78-1.63a4.32,4.32,0,0,1,.34-1A5.52,5.52,0,0,0,179.67,126.86Z" style="fill:#263238"></path><path d="M178,128.26a1.86,1.86,0,0,1-1.17.12c-.86-.18-.91-1-.78-1.63A2,2,0,0,1,178,128.26Z" style="fill:#ff97b8"></path><path d="M180,124.78a23,23,0,0,1,.17,2.32c0,.07-.18.1-.43.11h0a3.57,3.57,0,0,1-3.4-1.39c0-.07.05-.15.12-.1a5.34,5.34,0,0,0,3.2,1c.05-.21-.41-2.69-.29-2.7a6.7,6.7,0,0,1,1.67.42c-.29-3.3-1.1-6.52-1.34-9.8a.1.1,0,0,1,.19,0,53.37,53.37,0,0,1,1.9,10.5C181.85,125.5,180.34,124.91,180,124.78Z" style="fill:#263238"></path><path d="M159.72,120.52c2.49.36,3.42-4.85,3.42-4.85s5.09.36,7.27-6.85a11.27,11.27,0,0,1-2.67,5.9s9-.35,13.33-7.61c0,0-1.76,3.73-3.27,5a10.5,10.5,0,0,0,5.88-3.73s1.28,4.45,2.41,5.72c0,0,.69-15.73-14-15,0,0-9.15,0-12.91,7S159.72,120.52,159.72,120.52Z" style="fill:#263238"></path><path d="M158.86,126.16a3.3,3.3,0,0,0,.7.25,2.31,2.31,0,0,0,.72.07,2.19,2.19,0,0,0,.92-.21,2.68,2.68,0,0,0,.61-.4,2.9,2.9,0,0,0,.66-.82l-.52-4.19s-3-5.08-5.25-4.06S156.37,125,158.86,126.16Z" style="fill:#ad6359"></path><path d="M157.31,118.84a0,0,0,0,0,0,.07c1.74.87,2.55,2.62,3.07,4.4a1.44,1.44,0,0,0-2.12-.57c-.05,0,0,.11,0,.1a1.6,1.6,0,0,1,1.72.7,8.32,8.32,0,0,1,.73,1.5c.07.17.37.1.32-.09v0C161.27,122.62,159.75,119.27,157.31,118.84Z" style="fill:#263238"></path><path d="M159.13,125.53a.7.7,0,0,0,.79.63.72.72,0,1,0-.17-1.42A.7.7,0,0,0,159.13,125.53Z" style="fill:#fff"></path><path d="M157.75,124.34a.51.51,0,0,0,.56.44.5.5,0,0,0,.44-.56.5.5,0,1,0-1,.12Z" style="fill:#fff"></path><path d="M170,140.12l-2.55,7.28-8.9-9.15-2.78,3.51s9.33,14,9.35,13.34l2.68-6.29,4.44,4.1-.82-10.75Z" style="fill:#FFC727"></path><path d="M172.09,147.57c-.2-1.77-.34-3.56-.62-5.32,0-.06-.11-.08-.12,0-.28,1.73.5,8.5.56,10.13l0,0c-.18-.18-4.11-3.6-4.14-3.54-.6,1-2.56,5.59-2.69,6-1.48-2.22-7.71-11-9.43-13.05a.06.06,0,0,0-.11.06c1.32,2.36,9.39,13.91,9.49,13.87a68.46,68.46,0,0,0,2.8-6.65c.67.75,4.65,4.64,4.65,4.37A57,57,0,0,0,172.09,147.57Z" style="fill:#263238"></path></g><g id="freepik--character-2--inject-34"><polygon points="312.04 331.31 309.75 345.03 294.26 428.7 291.76 428.7 303.03 345.03 304.69 331.31 312.04 331.31" style="fill:#dbdbdb"></polygon><polygon points="304.69 331.31 312.04 331.31 309.75 345.03 303.03 345.03 304.69 331.31" style="fill:#c7c7c7"></polygon><polygon points="360.7 428.7 358.2 428.7 342.71 345.03 340.42 331.31 347.77 331.31 349.43 345.03 360.7 428.7" style="fill:#dbdbdb"></polygon><polygon points="347.77 331.31 349.43 345.03 342.71 345.03 340.42 331.31 347.77 331.31" style="fill:#c7c7c7"></polygon><polygon points="407.17 428.7 404.67 428.7 389.18 345.03 386.89 331.31 394.24 331.31 395.9 345.03 407.17 428.7" style="fill:#dbdbdb"></polygon><polygon points="395.9 345.03 389.18 345.03 386.89 331.31 394.24 331.31 395.9 345.03" style="fill:#c7c7c7"></polygon><polygon points="403.21 337.76 289.68 337.76 289.68 325.8 332.18 325.8 346.46 242.69 398.88 242.69 403.21 337.76" style="fill:#dbdbdb"></polygon><polygon points="403.21 337.76 397.02 337.76 392.99 242.69 398.88 242.69 403.21 337.76" style="fill:#c7c7c7"></polygon><path d="M286.8,442.65c2.25.28,63.64-14,65.64-16,.24-.21-2.66-12-2.66-12-1-4.85-16.95-44.45-16.95-44.45l-40.14,9.9,17,36.7S302.05,422,295.47,427c0,0,0,0,0,0a88.53,88.53,0,0,0-8.32,6.65C285.19,436,284.56,442.39,286.8,442.65Z" style="fill:#ad6359"></path><path d="M286.8,442.65c2.25.29,63.64-14,65.64-16,.24-.21-2.67-12-2.67-12-.32-1.59-2.25-6.95-4.72-13.43l-38.42,9,3.07,6.62S302.05,422,295.47,427c0,0,0,0,0,0a88.53,88.53,0,0,0-8.32,6.65C285.18,436,284.56,442.39,286.8,442.65Z" style="fill:#ebebeb"></path><path d="M286.63,442.83c2.32.24,64.21-13.63,66.23-15.65.78-.76-4.71-20.7-4.74-20.81l-39.61,8.75.17.67s-19.91,15.26-21.89,17.72S284.3,442.59,286.63,442.83Z" style="fill:#FFC727"></path><path d="M286.79,440.27c10.37-2.59,52.46-12.07,62.92-13.85.08,0,.09,0,0,.06-10.23,2.8-52.39,11.94-62.89,14C286.61,440.49,286.57,440.33,286.79,440.27Z" style="fill:#263238"></path><path d="M305.5,415.6c3.93-1.69,9.09-2.18,12.89,0,.14.09,0,.3-.12.29a59.35,59.35,0,0,0-12.64.19A.27.27,0,0,1,305.5,415.6Z" style="fill:#263238"></path><path d="M302.93,418.05c3.94-1.69,9.1-2.19,12.89,0,.15.09,0,.29-.12.28a59.27,59.27,0,0,0-12.63.2A.27.27,0,0,1,302.93,418.05Z" style="fill:#263238"></path><path d="M300.37,420.49c3.94-1.68,9.1-2.18,12.89,0,.15.08,0,.29-.12.28a58.72,58.72,0,0,0-12.64.2A.27.27,0,0,1,300.37,420.49Z" style="fill:#263238"></path><path d="M301.3,413.28c3.41,1.6,7.4,1.68,11.07,2.17a.52.52,0,0,0,.53-.66.11.11,0,0,0,.06-.17,22.48,22.48,0,0,0-8.43-8c-2-1-5.27-1.38-6.38,1.2S299.31,412.34,301.3,413.28Zm-1.79-3.07c-1.73-4.33,3.64-3,5.11-2.22a24.87,24.87,0,0,1,2.7,1.86c1.8,1.39,3.38,3,5,4.55-1.79-.35-3.59-.55-5.39-.83C304.81,413.22,300.47,412.6,299.51,410.21Z" style="fill:#263238"></path><path d="M325.26,405.31c-1.56-2.34-4.68-1.43-6.49,0a22.39,22.39,0,0,0-6.83,9.37c0,.09,0,.14.09.16a.52.52,0,0,0,.64.55c3.52-1.16,7.42-2,10.48-4.15C324.94,409.93,326.74,407.51,325.26,405.31Zm-7.61,7.22c-1.72.61-3.46,1.13-5.15,1.8,1.34-1.82,2.59-3.7,4.11-5.39a25.4,25.4,0,0,1,2.32-2.32c1.29-1.09,6.33-3.32,5.42,1.26C323.85,410.4,319.69,411.8,317.65,412.53Z" style="fill:#263238"></path><path d="M306.56,415.45l42.82-9.58s-35.31-81.93-32.19-86.07c1.56-2.07,41.23-2.68,53.85-13.37,16.38-13.88,5.39-35.1,5.39-35.1L332.13,270s.53,9.25-1.19,10.65c-1.14.93-53.93,5.36-59.72,23.15C264.11,325.63,306.56,415.45,306.56,415.45Z" style="fill:#37474f"></path><path d="M305.34,407.71c1.13-.47,12.18-3.61,14.66-4.24,5-1.28,10-2.53,15-3.71,2.61-.61,8.21-1.95,8.54-1.92a.14.14,0,0,1,0,.27c-4.89,1.52-9.82,2.86-14.76,4.2s-21.89,5.49-23.37,5.65C305.29,408,305.18,407.78,305.34,407.71Z" style="fill:#263238"></path><path d="M309.61,316.13a6.84,6.84,0,0,1,3.35-1l19.18-3.21c6-1,12-1.9,18-3.05,4.93-.95,9.94-2.23,14.21-4.9a20.61,20.61,0,0,0,8.71-11.4,36.85,36.85,0,0,0,1.13-14.59c-.12-1.19-.34-2.38-.56-3.55,0-.09.13-.12.14,0,1.62,9.07,1.77,19.6-5,26.83-3.32,3.52-7.88,5.59-12.53,6.93-5.24,1.52-10.72,2.23-16.11,3.13l-19.18,3.2c-3.08.52-6.2.92-9.26,1.55a3.23,3.23,0,0,0-1.66.74,2.39,2.39,0,0,0-.27,2.22c.31,1.5.71,3,1.14,4.47,3.5,11.91,27.05,68.74,27.74,70,.08.14-.14.25-.22.11-5.86-10.44-22.93-54.33-26.81-65.6a70.68,70.68,0,0,1-2.51-8.77C308.81,318.14,308.68,316.93,309.61,316.13Z" style="fill:#263238"></path><path d="M203.19,443.31c2.15.72,63.59-.14,65.93-1.64.91-.86,1.63-8.72,2.19-18.5l10.57-41.9-39.53-.33-11.57,41.62s-8.53,3.55-16,7.08c0,0,0,0,0,0a88.39,88.39,0,0,0-9.48,4.87C202.94,436.43,201,442.61,203.19,443.31Z" style="fill:#ad6359"></path><path d="M201.93,443.36c2.22.73,65.65.43,68.05-1.12.93-.57,1.42-9.8,1.7-21v-.35l-40.92-.26,0,.69s-24.22,11-26.69,12.94S199.71,442.63,201.93,443.36Z" style="fill:#FFC727"></path><path d="M202.64,440.9c10.69-.32,53.84-.57,64.43-.07.08,0,.08.06,0,.06-10.59.55-53.74.45-64.43.18C202.41,441.07,202.41,440.9,202.64,440.9Z" style="fill:#263238"></path><path d="M226.21,420.8c4.2-.81,9.35-.19,12.58,2.79.12.11,0,.29-.18.25a58.75,58.75,0,0,0-12.38-2.51A.27.27,0,0,1,226.21,420.8Z" style="fill:#263238"></path><path d="M223.18,422.64c4.2-.81,9.35-.19,12.58,2.79.13.12,0,.29-.18.25a58.49,58.49,0,0,0-12.38-2.51A.27.27,0,0,1,223.18,422.64Z" style="fill:#263238"></path><path d="M220.15,424.48c4.2-.8,9.35-.18,12.58,2.79.13.12,0,.3-.17.25A60,60,0,0,0,220.17,425,.27.27,0,0,1,220.15,424.48Z" style="fill:#263238"></path><path d="M222.61,417.63c3,2.3,6.86,3.22,10.34,4.49a.53.53,0,0,0,.66-.53.11.11,0,0,0,.1-.15,22.45,22.45,0,0,0-6.53-9.59c-1.76-1.47-4.85-2.47-6.49-.19S220.86,416.29,222.61,417.63Zm-1.09-3.37c-.76-4.61,4.2-2.21,5.46-1.08a25.25,25.25,0,0,1,2.24,2.39c1.47,1.74,2.66,3.66,3.94,5.52-1.68-.72-3.39-1.3-5.09-2C226.05,418.33,221.94,416.8,221.52,414.26Z" style="fill:#263238"></path><path d="M247.72,415c-1-2.61-4.26-2.39-6.33-1.4a22.32,22.32,0,0,0-8.69,7.69.11.11,0,0,0,.06.17.53.53,0,0,0,.5.68c3.69-.38,7.68-.32,11.14-1.82C246.42,419.42,248.7,417.45,247.72,415Zm-9,5.43c-1.8.22-3.61.36-5.41.66a67.69,67.69,0,0,1,5.17-4.39,24.88,24.88,0,0,1,2.76-1.77c1.5-.78,6.91-1.89,5,2.39C245.25,419.65,240.89,420.12,238.73,420.4Z" style="fill:#263238"></path><path d="M226.9,421.09l46.13,0s19.74-78.32,23.23-82.79c4.66-5.95,69.84-5.81,83.82-25.21,12.56-17.43,2-42.09,2-42.09l-49.36-1.46A101.68,101.68,0,0,0,337.25,285s-59.46,11-76.11,29.18C249.89,326.5,226.9,421.09,226.9,421.09Z" style="fill:#37474f"></path><path d="M328.64,281.66a23,23,0,0,1,4.19,1.34c1.41.53,2.81,1.15,4.17,1.81a85.52,85.52,0,0,1,7.81,4.41c.08,0,0,.16-.08.12-2.66-1.38-5.42-2.63-8.19-3.82l-4-1.72a39.29,39.29,0,0,1-4-1.78C328.36,281.93,328.45,281.62,328.64,281.66Z" style="fill:#263238"></path><path d="M331.6,269.49c.57,2.25,1.06,4.52,1.71,6.75.29,1,.59,2.06,1,3.05.33.84.82,1.8,1.79,2,1.12.22,1.44-.74,1.35-1.66a29.76,29.76,0,0,0-.57-3.08c-.23-1.16-.47-2.33-.68-3.5-.11-.59-.22-1.18-.32-1.76,0-.15-.13-1.27-.21-1.6,0,0,0,.06-.06.05h0s-.07,0-.07-.06,0-.11,0-.17a.09.09,0,0,1,.11,0c.21.12.23.41.29.63q.29.86.54,1.71c.31,1.07.61,2.15.89,3.24s.54,2.16.8,3.25a5.08,5.08,0,0,1,.22,2.5,1.91,1.91,0,0,1-1.77,1.44,1.55,1.55,0,0,1,.12.22c.1.22.17.46.26.68s.16.47.23.71a2,2,0,0,1,.06.34c0,.13,0,.26,0,.39s-.25.33-.35.13-.15-.21-.21-.32a2.48,2.48,0,0,1-.17-.37c-.07-.23-.14-.45-.19-.68s-.13-.46-.17-.69,0-.28-.05-.42a2.57,2.57,0,0,1-1.3-.49,4.33,4.33,0,0,1-1.34-2.06c-.34-.93-.6-1.9-.87-2.86a41.7,41.7,0,0,1-1.43-7.25C331.17,269.32,331.54,269.22,331.6,269.49Z" style="fill:#263238"></path><path d="M361,275c.2,1.11.33,2.24.59,3.35s.55,2.16.9,3.22a11.53,11.53,0,0,0,1.38,2.9,10.67,10.67,0,0,0,2.18,2.22,18.88,18.88,0,0,0,5.3,2.95,26.8,26.8,0,0,0,2.94.86c.51.11,1,.2,1.57.27a3.37,3.37,0,0,1,1.26.29.26.26,0,0,1,0,.44,4.63,4.63,0,0,1-2.34.08,17.68,17.68,0,0,1-2.5-.44,18.41,18.41,0,0,1-4.73-2,15,15,0,0,1-3.95-3.23,11.11,11.11,0,0,1-2.11-4.63,22.88,22.88,0,0,1-.69-6.28A.11.11,0,0,1,361,275Z" style="fill:#263238"></path><path d="M231.67,412.84a35.33,35.33,0,0,1,3.7-.23l3.9-.15c2.55-.08,5.11-.13,7.66-.14,5.15,0,10.3,0,15.44.07,2.69,0,8.44.12,8.76.22a.13.13,0,0,1,0,.26c-5.11.28-10.22.36-15.34.45s-10.22.18-15.33.09l-4.24-.12a44.3,44.3,0,0,1-4.47-.19C231.56,413.08,231.5,412.86,231.67,412.84Z" style="fill:#263238"></path><path d="M290.89,338.93a13.64,13.64,0,0,1,1.92-4,7,7,0,0,1,3.78-1.95c12.3-3.36,25-4.87,37.49-7.24a152.61,152.61,0,0,0,18.25-4.44,70.75,70.75,0,0,0,17.26-7.77,19.31,19.31,0,0,0,6.35-6.7,29.12,29.12,0,0,0,3-8.38,51.13,51.13,0,0,0,0-20.25,48.82,48.82,0,0,0-1.27-4.93c0-.11.13-.14.16,0a49.2,49.2,0,0,1,2.78,20.12c-.44,5.93-1.88,12.18-5.72,16.88a23.73,23.73,0,0,1-7.09,5.57,75.66,75.66,0,0,1-8.69,4.1,116.77,116.77,0,0,1-17.92,5.35c-12.48,2.76-25.21,4.16-37.68,6.93-1.53.34-3.07.71-4.6,1.1a16.21,16.21,0,0,0-4.53,1.45c-1.47.93-2,2.76-2.55,4.3s-20.69,69.54-21.14,71.25c-.07.27-.49.15-.42-.13C272,403.24,289.59,342.26,290.89,338.93Z" style="fill:#263238"></path><path d="M294.53,340.73c.47-1.48.87-3.07,2.25-4s21.12-3.55,23.34-3.89c.1,0,.14.14,0,.16-1.9.32-20.13,3.59-21.76,4.13a3.58,3.58,0,0,0-1.78,1.15,7.82,7.82,0,0,0-1,2.47l-1.68,5.3c-1.12,3.54-2.25,7.09-3.32,10.65-1.21,4-2.59,8.26-3.64,12.35-.08.31-.52.16-.47-.14C287.86,361.27,293.94,342.57,294.53,340.73Z" style="fill:#263238"></path><path d="M337,285.16a165.8,165.8,0,0,0-26.93,5.52,188.11,188.11,0,0,0-26,9.39c-4.73,2.12-9.3,4.49-13.83,7-.09.05,0,.18.08.14a209.71,209.71,0,0,1,25.27-11,203.93,203.93,0,0,1,26.31-7.63c5-1.09,10.1-1.94,15.17-2.79C337.45,285.7,337.36,285.12,337,285.16Z" style="fill:#263238"></path><path d="M341.51,218c-5.21,18.5-17.85,40.71-21,41.84-5.63,2-41.69.85-43.09.57-3.47-.72-5.25-24.63-2.09-26.71.73-.48,39,4.73,40.47,4.46,1.83-.34,7.3-13.25,17.34-24.6C340.15,205.58,344.28,208.15,341.51,218Z" style="fill:#eb9481"></path><path d="M281.84,259.68a85.19,85.19,0,0,1-10.71,2.42c-2.87.33-11.16,1.06-11.84-2.07-.46-2.13,4.36-3.13,7.76-3.92,1.79-.41,4.14-1.81,3.83-3-.54-2-5.16-.86-8.27.3-6,2.26-14.26,6.74-17.13,3.4-1.09-1.26.7-2.92,3.16-4.43-3.85,1.59-7.86,2.76-9.12,1.4a1.86,1.86,0,0,1,0-2.56,2.48,2.48,0,0,1-2.62-.87c-.93-1.38-.08-3,1.46-4.61a1.38,1.38,0,0,1-.91-.85c-1.78-4.06,12-12.53,16.3-12.81,12.7-.83,25.5,2.42,25.5,2.42C283.41,239.17,281.86,259.67,281.84,259.68Z" style="fill:#eb9481"></path><path d="M265.82,245.26a20.22,20.22,0,0,0-8.67,1.76c-3.18,1.47-5.89,3.76-8.9,5.53-.08,0,0,.18.08.12,1.43-.93,3-1.72,4.43-2.6s2.85-1.77,4.34-2.52a20.11,20.11,0,0,1,8.72-2.24S265.85,245.26,265.82,245.26Z" style="fill:#263238"></path><path d="M264.42,239.7a49.26,49.26,0,0,0-10,1.68c-3.54,1.11-6.55,3.38-9.5,5.56q-2.66,2-5.22,4.05c-.07.06,0,.18.08.12q4.5-3.39,9.2-6.5a26.43,26.43,0,0,1,9.56-4c2-.39,3.93-.63,5.91-.86A0,0,0,0,0,264.42,239.7Z" style="fill:#263238"></path><path d="M261.76,234.59c-3.22.11-6,.2-9.08,1.4a45.61,45.61,0,0,0-9.64,5.84c-1.61,1.23-3.19,2.51-4.74,3.81-.06.05,0,.16.1.11a106,106,0,0,1,11.1-7.81,20.77,20.77,0,0,1,5.9-2.55,37.73,37.73,0,0,1,6.36-.78S261.78,234.59,261.76,234.59Z" style="fill:#263238"></path><path d="M284.78,231.77l-3.27,30.09s29.45,2,39.31-1c5.3-1.64,18.21-31.48,21.11-41.7,2.85-10-.1-16.66-8.76-7.05C325,221.17,316.8,236.65,315.82,237S284.78,231.77,284.78,231.77Z" style="fill:#FFC727"></path><path d="M339,207.61a1.2,1.2,0,0,1-.32.61.8.8,0,0,1-.17.15,1.38,1.38,0,0,1-.43.19l-.25,0-.24,0a1.66,1.66,0,0,1-.31-.12l-.49.32.05,0a1.78,1.78,0,0,0,.43.23,1.34,1.34,0,0,0,.27.07l.29,0a2.12,2.12,0,0,0,.44-.05,1.76,1.76,0,0,0,.75-.4,1.38,1.38,0,0,0,.28-.31,1.71,1.71,0,0,0,.29-.88A2.61,2.61,0,0,0,339,207.61Zm-1.84.76.12.07h0Zm-53.5,33.89-.09.84a1,1,0,0,1,.09.44,1.24,1.24,0,0,1-.21.68l-.09.81a1.72,1.72,0,0,0,.85-1.49A1.74,1.74,0,0,0,283.64,242.26Zm14.62-.48a1.76,1.76,0,1,0,1.76,1.76A1.76,1.76,0,0,0,298.26,241.78Zm0,3a1.2,1.2,0,1,1,0-2.4,1.2,1.2,0,1,1,0,2.4Zm15.83-3a1.76,1.76,0,1,0,1.75,1.76A1.76,1.76,0,0,0,314.09,241.78Zm0,3a1.2,1.2,0,1,1,0-2.4,1.2,1.2,0,0,1,0,2.4Zm15.82-3a1.76,1.76,0,1,0,1.74,1.76A1.76,1.76,0,0,0,329.91,241.78Zm0,3a1.2,1.2,0,1,1,1.19-1.21A1.19,1.19,0,0,1,329.91,244.75Zm-39.61,8.93a1.75,1.75,0,1,0,1.77,1.75A1.76,1.76,0,0,0,290.3,253.68Zm0,3a1.21,1.21,0,0,1,0-2.41,1.21,1.21,0,0,1,0,2.41Zm15.84-3a1.75,1.75,0,1,0,1.76,1.75A1.76,1.76,0,0,0,306.14,253.68Zm0,3a1.21,1.21,0,0,1,0-2.41,1.21,1.21,0,0,1,0,2.41Zm15.85-3a1.75,1.75,0,1,0,1.76,1.75A1.76,1.76,0,0,0,322,253.68Zm0,3a1.21,1.21,0,1,1,1.21-1.21A1.2,1.2,0,0,1,322,256.64Zm7.92-38.89a1.76,1.76,0,1,0,1.74,1.77A1.76,1.76,0,0,0,329.91,217.75Zm0,3a1.21,1.21,0,1,1,1.19-1.2A1.19,1.19,0,0,1,329.91,220.72ZM289,232.55a1.71,1.71,0,0,0,1.3.6,1.57,1.57,0,0,0,.8-.21Zm48.77-2.91a1.75,1.75,0,0,0-.93,3.23c.07-.17.15-.35.21-.52a1.17,1.17,0,0,1-.48-.94,1.2,1.2,0,0,1,1.2-1.2H338c.07-.18.14-.36.22-.54A1.58,1.58,0,0,0,337.81,229.64Zm-.67-21.27.12.07h0Zm1.84-.76a1.2,1.2,0,0,1-.32.61.8.8,0,0,1-.17.15,1.38,1.38,0,0,1-.43.19l-.25,0-.24,0a1.66,1.66,0,0,1-.31-.12l-.49.32-.11-.09a.47.47,0,0,0,.1.1l.06,0a1.78,1.78,0,0,0,.43.23,1.34,1.34,0,0,0,.27.07,1.43,1.43,0,0,0,.29,0,1.61,1.61,0,0,0,.44-.06,1.76,1.76,0,0,0,.75-.4,1.38,1.38,0,0,0,.28-.31,1.71,1.71,0,0,0,.29-.88A2.61,2.61,0,0,0,339,207.61Zm-1.84.76.12.07h0ZM322,229.64a1.76,1.76,0,1,0,1.76,1.77A1.76,1.76,0,0,0,322,229.64Zm0,3a1.2,1.2,0,1,1,0-2.39,1.2,1.2,0,0,1,0,2.39Z" style="opacity:0.1"></path><path d="M289.47,246.94c.2-2.13.4-4.25.58-6.38s.45-4.25.47-6.37c0-.1-.15-.13-.17,0-.41,2-.59,4.09-.85,6.13s-.53,4.33-.78,6.5c-.49,4.28-.81,8.57-1.06,12.88,0,.1.15.1.17,0C288.47,255.44,289.05,251.2,289.47,246.94Z" style="fill:#263238"></path><path d="M341.93,219.15c-2.9,10.22-15.81,40.06-21.11,41.69A52.59,52.59,0,0,1,309,262.36c8.63-15.9,20.7-38.41,29.61-54.63C343,206,344.06,211.64,341.93,219.15Z" style="opacity:0.1"></path><path d="M324.59,281.92s63.19,2.31,63.47,1.87-14.28-69-38-77.54c-3.76-1.36-9.87-.81-13.56,2.54C325.58,218.69,323.6,281.1,324.59,281.92Z" style="fill:#FFC727"></path><path d="M339.49,206.86a5,5,0,0,0-.52.25,1.09,1.09,0,0,1,0,.26,1.23,1.23,0,0,1-.34.85.8.8,0,0,1-.17.15,1.38,1.38,0,0,1-.43.19l-.25,0-.24,0a1.38,1.38,0,0,1-.43-.19l-.07-.06a3.54,3.54,0,0,0-.42.35h0s0,0,.05,0l.06,0a1.54,1.54,0,0,0,.42.26h0a1.51,1.51,0,0,0,.63.13,1.61,1.61,0,0,0,.44-.06,1.76,1.76,0,0,0,.75-.4,1.38,1.38,0,0,0,.28-.31,1.78,1.78,0,0,0,.3-1A1.44,1.44,0,0,0,339.49,206.86Zm14.74,1.55h0l0,0Zm0,0a1.22,1.22,0,0,1-.35.14l-.24,0-.24,0a1.38,1.38,0,0,1-.43-.19.8.8,0,0,1-.17-.15,1.22,1.22,0,0,1-.26-.38,1.55,1.55,0,0,1-.08-.23,1.94,1.94,0,0,1,0-.24v0l-.53-.28a1.12,1.12,0,0,0,0,.32,1.78,1.78,0,0,0,.3,1,1.38,1.38,0,0,0,.28.31,1.76,1.76,0,0,0,.75.4,1.61,1.61,0,0,0,.44.06,1.7,1.7,0,0,0,1.07-.38Zm0,0h0l0,0Zm-16.42,21.23a1.76,1.76,0,1,0,1.77,1.77A1.76,1.76,0,0,0,337.81,229.64Zm0,3a1.2,1.2,0,1,1,0-2.39,1.2,1.2,0,0,1,0,2.39Zm15.83-3a1.76,1.76,0,1,0,1.75,1.77A1.77,1.77,0,0,0,353.64,229.64Zm0,3a1.2,1.2,0,1,1,1.21-1.19A1.21,1.21,0,0,1,353.64,232.6Zm16.8-2.66a1.75,1.75,0,1,0,.77,1.58C371,231,370.7,230.46,370.44,229.94Zm-1,2.66a1.2,1.2,0,1,1,1.2-1.19A1.2,1.2,0,0,1,369.45,232.6Zm-38-13.95-.33,1.08a0,0,0,0,1,0,0,.79.79,0,0,1-.06.22,0,0,0,0,1,0,0l-.3,1.07a1.73,1.73,0,0,0,.95-1.54A1.6,1.6,0,0,0,331.41,218.65Zm14.32-.9a1.76,1.76,0,1,0,1.75,1.77A1.77,1.77,0,0,0,345.73,217.75Zm0,3a1.21,1.21,0,1,1,1.2-1.2A1.21,1.21,0,0,1,345.73,220.72Zm15.8-3a1.76,1.76,0,1,0,1.77,1.77A1.76,1.76,0,0,0,361.53,217.75Zm0,3a1.21,1.21,0,1,1,1.21-1.2A1.2,1.2,0,0,1,361.53,220.72Zm-23.72,33a1.75,1.75,0,1,0,1.77,1.75A1.76,1.76,0,0,0,337.81,253.68Zm0,3a1.21,1.21,0,0,1,0-2.41,1.21,1.21,0,0,1,0,2.41Zm15.83-3a1.75,1.75,0,1,0,1.75,1.75A1.76,1.76,0,0,0,353.64,253.68Zm0,3a1.21,1.21,0,1,1,1.21-1.21A1.21,1.21,0,0,1,353.64,256.64Zm15.81-3a1.75,1.75,0,1,0,1.77,1.75A1.76,1.76,0,0,0,369.45,253.68Zm0,3a1.21,1.21,0,1,1,1.2-1.21A1.2,1.2,0,0,1,369.45,256.64Zm-39.54-14.86a1.76,1.76,0,1,0,1.74,1.76A1.76,1.76,0,0,0,329.91,241.78Zm0,3a1.2,1.2,0,1,1,1.19-1.21A1.19,1.19,0,0,1,329.91,244.75Zm15.82-3a1.76,1.76,0,1,0,1.75,1.76A1.76,1.76,0,0,0,345.73,241.78Zm0,3a1.2,1.2,0,1,1,1.2-1.21A1.21,1.21,0,0,1,345.73,244.75Zm15.8-3a1.76,1.76,0,1,0,1.77,1.76A1.75,1.75,0,0,0,361.53,241.78Zm0,3a1.2,1.2,0,1,1,1.21-1.21A1.2,1.2,0,0,1,361.53,244.75Zm15.22-.18a1.19,1.19,0,0,1-.58-1,1.21,1.21,0,0,1,.05-.34l-.27-.7a1.77,1.77,0,0,0-.34,1,1.73,1.73,0,0,0,1.39,1.7C376.91,245,376.83,244.79,376.75,244.57ZM337.81,277.7a1.76,1.76,0,1,0,1.77,1.77A1.76,1.76,0,0,0,337.81,277.7Zm0,3a1.2,1.2,0,1,1,0-2.39,1.2,1.2,0,0,1,0,2.39Zm15.83-3a1.76,1.76,0,1,0,1.75,1.77A1.77,1.77,0,0,0,353.64,277.7Zm0,3a1.2,1.2,0,1,1,1.21-1.19A1.21,1.21,0,0,1,353.64,280.66Zm15.82-3a1.76,1.76,0,1,0,1.75,1.77A1.77,1.77,0,0,0,369.46,277.7Zm0,3a1.2,1.2,0,1,1,0-2.39,1.2,1.2,0,1,1,0,2.39Zm15.82-3a1.76,1.76,0,1,0,1.75,1.77A1.76,1.76,0,0,0,385.28,277.7Zm0,3a1.2,1.2,0,1,1,1.21-1.19A1.2,1.2,0,0,1,385.28,280.66Zm-55.37-14.85a1.76,1.76,0,1,0,1.74,1.77A1.76,1.76,0,0,0,329.91,265.81Zm0,3a1.2,1.2,0,1,1,1.19-1.19A1.19,1.19,0,0,1,329.91,268.77Zm15.82-3a1.76,1.76,0,1,0,1.75,1.77A1.77,1.77,0,0,0,345.73,265.81Zm0,3a1.2,1.2,0,1,1,1.2-1.19A1.2,1.2,0,0,1,345.73,268.77Zm-6.24-61.91a5,5,0,0,0-.52.25,1.09,1.09,0,0,1,0,.26,1.23,1.23,0,0,1-.34.85.8.8,0,0,1-.17.15,1.38,1.38,0,0,1-.43.19l-.25,0-.24,0a1.38,1.38,0,0,1-.43-.19l-.07-.06a3.54,3.54,0,0,0-.42.35l0,0,.06,0a1.54,1.54,0,0,0,.42.26h0a1.68,1.68,0,0,0,.63.12,2.12,2.12,0,0,0,.44-.05,1.76,1.76,0,0,0,.75-.4,1.38,1.38,0,0,0,.28-.31,1.78,1.78,0,0,0,.3-1A1.44,1.44,0,0,0,339.49,206.86Zm14.74,1.55h0l0,0Zm0,0a1.22,1.22,0,0,1-.35.14l-.24,0-.24,0a1.38,1.38,0,0,1-.43-.19.8.8,0,0,1-.17-.15,1.22,1.22,0,0,1-.26-.38,1.55,1.55,0,0,1-.08-.23,1.94,1.94,0,0,1,0-.24v0l-.53-.28a1.12,1.12,0,0,0,0,.32,1.78,1.78,0,0,0,.3,1,1.38,1.38,0,0,0,.28.31,1.76,1.76,0,0,0,.75.4,2.12,2.12,0,0,0,.44.05,1.76,1.76,0,0,0,1.07-.37Zm7.3,57.39a1.76,1.76,0,1,0,1.77,1.77A1.76,1.76,0,0,0,361.53,265.81Zm0,3a1.2,1.2,0,1,1,1.21-1.19A1.19,1.19,0,0,1,361.53,268.77Zm15.84-3a1.76,1.76,0,1,0,1.76,1.77A1.76,1.76,0,0,0,377.37,265.81Zm0,3a1.2,1.2,0,1,1,1.2-1.19A1.2,1.2,0,0,1,377.37,268.77Z" style="opacity:0.1"></path><path d="M339.67,216.52c4.55,1,10.2-4.65,12.28-9.21.14-.32-.56-3.45-1.22-7.3-.4-2.34-.78-4.95-1-7.36l-14.84,4.79a38.65,38.65,0,0,1,2.15,9.14,5.49,5.49,0,0,1,0,1,.76.76,0,0,0,0,.16C336.87,209.64,336.23,215.73,339.67,216.52Z" style="fill:#eb9481"></path><path d="M334.94,197.44a38.87,38.87,0,0,1,2.14,9.14,5.35,5.35,0,0,1,0,1c0,.05,0,.1,0,.17a8.27,8.27,0,0,0,1.56,0c9.16-1.1,10.32-11.82,10.48-14.84Z" style="fill:#263238"></path><path d="M354,177.91c.58,5.58-5.16,20.28-9.57,23-6.39,3.87-15.39,2.61-18.3-4.74-2.83-7.12,5-26.14,9.78-28.41C343,164.36,353.14,169.66,354,177.91Z" style="fill:#eb9481"></path><path d="M350.67,191.48c-1.84,4.31-4.18,8.14-6.23,9.38-6.39,3.86-15.38,2.61-18.3-4.74-1.78-4.48.66-13.69,3.91-20.45v0c1.92-4,4.09-7.09,5.86-7.94,7.05-3.34,17.22,2,18.09,10.2C354.32,180.9,352.82,186.51,350.67,191.48Z" style="fill:#eb9481"></path><path d="M336.93,184.45s.06.08,0,.12c-.44,1-.77,2.14,0,2.83,0,0,0,.07,0,0C335.9,186.85,336.36,185.3,336.93,184.45Z" style="fill:#263238"></path><path d="M338.22,183.8c1.62.53.44,3.72-1.06,3.23S336.87,183.35,338.22,183.8Z" style="fill:#263238"></path><path d="M331.12,182.29s-.09,0-.11.06c-.33,1-.88,2.09-1.9,2.09,0,0-.05.05,0,.06C330.25,184.75,331,183.3,331.12,182.29Z" style="fill:#263238"></path><path d="M330.62,180.93c-1.55-.71-2.85,2.44-1.42,3.1S331.92,181.53,330.62,180.93Z" style="fill:#263238"></path><path d="M339.56,182.73a12.94,12.94,0,0,1-1.07-.89,2.31,2.31,0,0,1-.93-1.12.73.73,0,0,1,.41-.78,1.81,1.81,0,0,1,1.76.45,2.64,2.64,0,0,1,1,1.59A.77.77,0,0,1,339.56,182.73Z" style="fill:#263238"></path><path d="M330,178.87a13.09,13.09,0,0,0,1.39.14,2.25,2.25,0,0,0,1.45-.13.72.72,0,0,0,.26-.84,1.77,1.77,0,0,0-1.55-.93,2.68,2.68,0,0,0-1.85.38A.77.77,0,0,0,330,178.87Z" style="fill:#263238"></path><path d="M334.74,193.59c-.29.2-.59.5-1,.47a2.84,2.84,0,0,1-1.08-.44s-.07,0-.05,0a1.41,1.41,0,0,0,1.23.78,1.15,1.15,0,0,0,1-.79C334.86,193.59,334.79,193.56,334.74,193.59Z" style="fill:#263238"></path><path d="M334.55,190.28a3.62,3.62,0,0,1-2.8.67,4.5,4.5,0,0,1-1.24-.4c-.08,0-.35-.18-.42-.22a.27.27,0,0,1-.12-.3h0l.85-2.1c-.33,0-2,.15-1.82-.24a54.43,54.43,0,0,1,5.08-9.71.1.1,0,0,1,.18.09c-1.24,3.15-3,6.06-4.32,9.21a6.29,6.29,0,0,1,1.77.11c.05,0-1.11,2.53-1.11,2.56a5,5,0,0,0,3.89.21C334.58,190.13,334.64,190.22,334.55,190.28Z" style="fill:#263238"></path><path d="M331.14,190.28a4.21,4.21,0,0,0,1.14,1.81,1.91,1.91,0,0,0,1.06.45c.86.08,1.14-.63,1.22-1.3a4.35,4.35,0,0,0,0-1.07A5.45,5.45,0,0,1,331.14,190.28Z" style="fill:#263238"></path><path d="M332.28,192.09a1.91,1.91,0,0,0,1.06.45c.86.08,1.14-.63,1.22-1.3A2,2,0,0,0,332.28,192.09Z" style="fill:#ff97b8"></path><path d="M350.84,190.54s6.15-7.86,6.25-12.82c.05-2.23-2.78-4.09-2.78-4.09a5,5,0,0,0-1-5.22c-2.33-2.78-8.73-3-8.73-3s-3.4-6.43-9.5-4.77-3.09,8.7-3.09,8.7-2.5,2.77,2.43,5.76S349.88,177,349.88,177a36.4,36.4,0,0,0-1.12,10.76A3.3,3.3,0,0,0,350.84,190.54Z" style="fill:#263238"></path><path d="M343.59,165.38a10.33,10.33,0,0,1,4.18-.25,11.11,11.11,0,0,1,3.61,1,6.15,6.15,0,0,1,3.75,5.11,4.29,4.29,0,0,1-1.19,3.12s-.09,0-.05-.06c1.54-1.5,1.15-4.17-.08-5.73a9.25,9.25,0,0,0-5.86-3,18,18,0,0,0-4.34-.07C343.52,165.52,343.51,165.41,343.59,165.38Z" style="fill:#263238"></path><path d="M330.61,163a5,5,0,0,1,3.83-2.76,8.61,8.61,0,0,1,5.48.85,10.83,10.83,0,0,1,4.1,3.88s0,.08-.06,0a9.47,9.47,0,0,0-8.59-4.42,5.19,5.19,0,0,0-4,2.1A5.14,5.14,0,0,0,331,167a9.65,9.65,0,0,0,3.29,4.19,0,0,0,0,1,0,.06,9.94,9.94,0,0,1-3.34-3.63A5.62,5.62,0,0,1,330.61,163Z" style="fill:#263238"></path><path d="M333.15,175.25a17.77,17.77,0,0,0,7.16,2.14,36.52,36.52,0,0,0,7.82-.13c1.51-.18,3-.42,4.51-.68a0,0,0,0,1,0,.07,38.53,38.53,0,0,1-8.17,1.49,19.55,19.55,0,0,1-7.59-1,16.92,16.92,0,0,1-3.79-1.87S333.12,175.23,333.15,175.25Z" style="fill:#263238"></path><path d="M335.4,190.26a4.63,4.63,0,0,1-1.72-6.3h0a4.62,4.62,0,1,1,2.79,6.74A4.93,4.93,0,0,1,335.4,190.26Zm-1.19-6a4,4,0,1,0,5.46-1.49,3.91,3.91,0,0,0-.92-.39A4,4,0,0,0,334.21,184.26Z" style="fill:#455a64"></path><path d="M326.58,186.64c-1.79-.62-2.56-3.09-1.72-5.5a5.59,5.59,0,0,1,2-2.72,2.87,2.87,0,0,1,4.65,1.63,5.51,5.51,0,0,1-.14,3.37c-.8,2.28-2.76,3.69-4.49,3.31Zm.63-7.71a4.82,4.82,0,0,0-1.76,2.42c-.73,2.08-.13,4.2,1.34,4.71s3.25-.76,4-2.84a5,5,0,0,0,.13-3,2.47,2.47,0,0,0-1.48-1.73l-.22-.06A2.55,2.55,0,0,0,327.21,178.93Z" style="fill:#455a64"></path><path d="M333.62,184.51l.55-.29c-.43-.81-1.64-2.15-3.14-1.46l.26.57C332.64,182.7,333.58,184.44,333.62,184.51Z" style="fill:#455a64"></path><path d="M352.25,193.36l.62-.06c0-.29-.3-2.82-1.49-3.55s-9.08-3.07-9.42-3.17l-.18.59c2.29.68,8.42,2.58,9.28,3.11S352.19,192.66,352.25,193.36Z" style="fill:#455a64"></path><path d="M346.82,190.26s4.49-4.17,6.45-2.47-2.14,8.26-5,8.67a2.71,2.71,0,0,1-3.25-2.19Z" style="fill:#eb9481"></path><path d="M352.05,189.64s0,.06,0,.07c-2,.35-3.32,1.84-4.37,3.46a1.5,1.5,0,0,1,2.28.07s0,.11-.07.09a1.67,1.67,0,0,0-1.92.18,8.88,8.88,0,0,0-1.18,1.27c-.12.15-.4,0-.29-.18l0,0C347,192.21,349.49,189.34,352.05,189.64Z" style="fill:#263238"></path><path d="M337.07,207.34l2.78,9.19,12-10.25,2.8,3.88s-12.37,16.89-12.37,16.08l-3-8-5.75,4.85,1.61-13.32Z" style="fill:#ebebeb"></path><path d="M334,216.48c.34-2.19.63-4.41,1.07-6.58,0-.08.14-.1.15,0,.25,2.17-1.09,10.54-1.26,12.56l0,0c.24-.21,5.31-4.25,5.35-4.17.69,1.28,2.88,7.09,3,7.62,1.95-2.68,9.41-12.41,11.67-14.91a.08.08,0,0,1,.12.09c-1.77,2.86-11.66,16-11.79,15.92a88.11,88.11,0,0,1-3.1-8.43c-.88.9-6.05,5.5-6,5.17A67.86,67.86,0,0,1,334,216.48Z" style="fill:#263238"></path><path d="M348.74,226.27c-6.82-.39-43.1-3.9-50.95-11.4-11.67-11.16-17.3-29.4-20.19-37.23-1.26-3.42,21.35-14.09,23.22-10.68,4,7.3,12.46,27,14.5,29.12S340,207,351.63,212.18C367.23,219.15,365.28,227.23,348.74,226.27Z" style="fill:#eb9481"></path><path d="M300.61,168.94s.71-10-.53-15.35A35.3,35.3,0,0,0,292,138.7c-4.13-4.59-17.31-12.82-20.35-9.44-2.74,3.06,11.15,10.8,11.15,10.8s-12.86-10.23-15.49-5.93,14,12.35,14,12.35-13.45-10.2-15.46-5.35C264.36,144.8,279,153,279,153s-11.63-8.69-13.35-5c-1.91,4.09,11.15,12.47,11.15,12.47-2.8,10.16.16,17.6,2.91,20.34C280.54,181.6,300.61,168.94,300.61,168.94Z" style="fill:#eb9481"></path><path d="M287.5,143.31c-1.47-1.25-2.94-2.54-4.52-3.66s-3.19-2.18-4.86-3.15a33.48,33.48,0,0,0-6.86-3.16c4.16,1.71,9.85,5.63,11.43,6.76s3.2,2.15,4.77,3.27C287.5,143.4,287.54,143.34,287.5,143.31Z" style="fill:#263238"></path><path d="M283.56,149.07c-1.95-1.52-3.82-3.11-5.83-4.54s-4-2.61-6.12-3.9c-.17-.1-.17,0,0,.12,2,1.38,3.83,2.8,5.85,4.19s4.11,2.72,6.07,4.18C283.55,149.14,283.59,149.09,283.56,149.07Z" style="fill:#263238"></path><path d="M281.06,154.62a54.72,54.72,0,0,0-9.45-6.26c-.16-.09-.14.06,0,.16,3.18,2,5.69,3.59,9.34,6.2C281,154.76,281.12,154.67,281.06,154.62Z" style="fill:#263238"></path><path d="M275.4,183.35l27.33-14.44s10.55,23.86,12.76,26.24S351,210.1,358.43,215.54s5.39,10.88-4.4,11.4-48.47-4.5-55.48-10.15S275.4,183.35,275.4,183.35Z" style="fill:#FFC727"></path><path d="M339.06,206.14a2.75,2.75,0,0,0-.26-.22,1.75,1.75,0,0,0-1-.3,1.71,1.71,0,0,0-1,.3,2.75,2.75,0,0,0-.26.22,1.72,1.72,0,0,0-.51,1.23,1.78,1.78,0,0,0,.3,1,1.19,1.19,0,0,0,.28.31,1.76,1.76,0,0,0,.34.25,1.66,1.66,0,0,0,.39.15,1.54,1.54,0,0,0,.43.06,1.61,1.61,0,0,0,.44-.06,1.76,1.76,0,0,0,.75-.4,1.38,1.38,0,0,0,.28-.31,1.78,1.78,0,0,0,.3-1A1.69,1.69,0,0,0,339.06,206.14Zm-.4,2.08a.8.8,0,0,1-.17.15,1.38,1.38,0,0,1-.43.19l-.25,0-.24,0a1.38,1.38,0,0,1-.43-.19.8.8,0,0,1-.17-.15,1.22,1.22,0,0,1-.26-.38,1.55,1.55,0,0,1-.08-.23,1.94,1.94,0,0,1,0-.24,1.12,1.12,0,0,1,.36-.84,1.15,1.15,0,0,1,.6-.33l.24,0,.25,0a1.19,1.19,0,0,1,.94,1.17A1.23,1.23,0,0,1,338.66,208.22Zm-8.75,9.53a1.76,1.76,0,1,0,1.74,1.77A1.76,1.76,0,0,0,329.91,217.75Zm0,3a1.21,1.21,0,1,1,1.19-1.2A1.19,1.19,0,0,1,329.91,220.72Zm15.82-3a1.76,1.76,0,1,0,1.75,1.77A1.77,1.77,0,0,0,345.73,217.75Zm0,3a1.21,1.21,0,1,1,1.2-1.2A1.21,1.21,0,0,1,345.73,220.72Zm-31.64-3a1.76,1.76,0,1,0,1.75,1.77A1.77,1.77,0,0,0,314.09,217.75Zm0,3a1.21,1.21,0,1,1,0-2.41,1.21,1.21,0,0,1,0,2.41Zm48.47-.56a1.23,1.23,0,0,1-1,.56,1.2,1.2,0,0,1-1.18-1.2,1.18,1.18,0,0,1,1.09-1.2c-.12-.16-.26-.32-.4-.48h0a1.75,1.75,0,1,0,1.74,2.92Q362.68,220.46,362.56,220.16Zm-56.4-38.58a1.76,1.76,0,1,0,1.77,1.77A1.75,1.75,0,0,0,306.16,181.58Zm0,3a1.2,1.2,0,0,1,0-2.39,1.2,1.2,0,1,1,0,2.39Zm-15.82-3a1.76,1.76,0,1,0,1.77,1.77A1.76,1.76,0,0,0,290.34,181.58Zm0,3a1.2,1.2,0,0,1,0-2.39,1.2,1.2,0,1,1,0,2.39Zm-14.11-1.63-.52.28a.86.86,0,0,1,0,.16,1.16,1.16,0,0,1-.08.42c.09.15.2.34.34.56a1.68,1.68,0,0,0,.31-1A1.61,1.61,0,0,0,276.23,182.91Zm23.5-12.42-.5.27a1.13,1.13,0,0,1,.23.7,1.2,1.2,0,0,1-1.2,1.19,1.22,1.22,0,0,1-1.13-.78l-.49.26a1.76,1.76,0,0,0,3.38-.67A1.78,1.78,0,0,0,299.73,170.49ZM322,205.62a1.75,1.75,0,1,0,1.76,1.75A1.75,1.75,0,0,0,322,205.62Zm0,3a1.21,1.21,0,0,1-1.19-1.21,1.2,1.2,0,1,1,2.4,0A1.21,1.21,0,0,1,322,208.58Zm17.07-2.44a2.75,2.75,0,0,0-.26-.22,1.75,1.75,0,0,0-1-.3,1.71,1.71,0,0,0-1,.3,2.75,2.75,0,0,0-.26.22,1.72,1.72,0,0,0-.51,1.23,1.78,1.78,0,0,0,.3,1,1.19,1.19,0,0,0,.28.31,1.76,1.76,0,0,0,.34.25,1.66,1.66,0,0,0,.39.15,2,2,0,0,0,.43.05,2.12,2.12,0,0,0,.44-.05,1.76,1.76,0,0,0,.75-.4,1.38,1.38,0,0,0,.28-.31,1.78,1.78,0,0,0,.3-1A1.69,1.69,0,0,0,339.06,206.14Zm-.4,2.08a.8.8,0,0,1-.17.15,1.38,1.38,0,0,1-.43.19l-.25,0-.24,0a1.38,1.38,0,0,1-.43-.19.8.8,0,0,1-.17-.15,1.22,1.22,0,0,1-.26-.38,1.55,1.55,0,0,1-.08-.23,1.94,1.94,0,0,1,0-.24,1.12,1.12,0,0,1,.36-.84,1.15,1.15,0,0,1,.6-.33l.24,0,.25,0a1.19,1.19,0,0,1,.94,1.17A1.23,1.23,0,0,1,338.66,208.22Zm-.85-2.05-.24,0,.24,0,.25,0A1,1,0,0,0,337.81,206.17Zm-31.67-.55a1.75,1.75,0,1,0,1.76,1.75A1.75,1.75,0,0,0,306.14,205.62Zm0,3a1.22,1.22,0,0,1-1.2-1.21,1.2,1.2,0,0,1,1.2-1.2,1.18,1.18,0,0,1,1.19,1.2A1.19,1.19,0,0,1,306.14,208.58Zm-15.84-3a1.53,1.53,0,0,0-.74.18l.31.45a1.22,1.22,0,0,1,.43-.08,1.2,1.2,0,0,1,.92,2l.33.46a1.71,1.71,0,0,0,.52-1.23A1.76,1.76,0,0,0,290.3,205.62Zm25.53-10.19a2.2,2.2,0,0,1-.34-.28,8.22,8.22,0,0,1-.92-1.36h0a1.26,1.26,0,0,0-.47-.08,1.76,1.76,0,1,0,1.75,1.77A.09.09,0,0,0,315.83,195.43Zm-1.74,1.26a1.21,1.21,0,1,1,0-2.41,1.21,1.21,0,0,1,0,2.41Zm-15.83-3a1.76,1.76,0,1,0,1.76,1.77A1.76,1.76,0,0,0,298.26,193.71Zm0,3a1.21,1.21,0,1,1,0-2.41,1.21,1.21,0,0,1,0,2.41Zm-15.82-3a1.77,1.77,0,0,0-.69.14l.3.49a1.23,1.23,0,0,1,.39-.06,1.2,1.2,0,0,1,.86,2l.3.47a1.73,1.73,0,0,0,.59-1.3A1.76,1.76,0,0,0,282.44,193.71Z" style="opacity:0.1"></path><path d="M303.47,176.61c-3.64,2.09-18.83,10.08-22.23,11.58-.24.11-.36,0-.13-.16a185.2,185.2,0,0,1,22.27-11.56C303.48,176.43,303.56,176.56,303.47,176.61Z" style="fill:#263238"></path><path d="M329.77,224.87c1.6.06,3.19.2,4.79.34s3.17.31,4.76.47l4.75.57c1.59.2,3.17.4,4.76.62a45.4,45.4,0,0,1-4.81,0c-1.6-.08-3.19-.23-4.78-.4s-3.18-.39-4.76-.65S331.33,225.24,329.77,224.87Z" style="fill:#263238"></path><path d="M343.87,226.6c1.27.3,2.48.72,3.72,1.12a7.32,7.32,0,0,1-1.92-.36A9.53,9.53,0,0,1,343.87,226.6Z" style="fill:#263238"></path><path d="M352,211.89a18.29,18.29,0,0,1,2,.89,15.89,15.89,0,0,1,1.85,1.11,18.48,18.48,0,0,1-2-.89A19.26,19.26,0,0,1,352,211.89Z" style="fill:#263238"></path></g></svg>